<svg width="169" height="50" viewBox="0 0 169 50" fill="none" xmlns="http://www.w3.org/2000/svg">
<path d="M162.987 50H5.92001C2.65643 50 0 47.34 0 44.0837V5.9075C0 2.65 2.65643 0 5.92001 0H162.987C166.25 0 169 2.65 169 5.9075V44.0837C169 47.34 166.25 50 162.987 50Z" fill="#A6A6A6"/>
<path d="M167.788 44.0848C167.788 46.7298 165.643 48.8723 162.989 48.8723H5.92012C3.26744 48.8723 1.11426 46.7298 1.11426 44.0848V5.90605C1.11426 3.2623 3.26744 1.1123 5.92012 1.1123H162.987C165.643 1.1123 167.787 3.2623 167.787 5.90605L167.788 44.0848Z" fill="black"/>
<path d="M37.7159 24.7298C37.6796 20.701 41.0195 18.741 41.1723 18.6498C39.2807 15.896 36.3489 15.5198 35.3186 15.4898C32.8562 15.231 30.4677 16.961 29.2133 16.961C27.9339 16.961 26.0023 15.5148 23.9205 15.5573C21.2415 15.5985 18.7353 17.1473 17.3608 19.5523C14.5241 24.456 16.6397 31.6623 19.3575 35.626C20.717 37.5673 22.3056 39.7348 24.3849 39.6585C26.4192 39.5748 27.1791 38.3635 29.6339 38.3635C32.0663 38.3635 32.7798 39.6585 34.9005 39.6098C37.0837 39.5748 38.4582 37.6598 39.7702 35.701C41.3413 33.476 41.9722 31.2848 41.9972 31.1723C41.9459 31.1548 37.7572 29.5585 37.7159 24.7298Z" fill="white"/>
<path d="M33.7099 12.8822C34.804 11.516 35.5526 9.65725 35.3448 7.771C33.7612 7.841 31.7807 8.86475 30.6403 10.201C29.6313 11.3785 28.73 13.3085 28.9628 15.1235C30.7417 15.256 32.5682 14.2272 33.7099 12.8822Z" fill="white"/>
<path d="M67.1556 39.3801H64.3127L62.7554 34.4939H57.3424L55.8589 39.3801H53.0911L58.454 22.7451H61.7664L67.1556 39.3801ZM62.2859 32.4439L60.8776 28.1001C60.7286 27.6564 60.4495 26.6114 60.0376 24.9664H59.9875C59.8235 25.6739 59.5594 26.7189 59.1963 28.1001L57.8131 32.4439H62.2859Z" fill="white"/>
<path d="M80.9473 33.2354C80.9473 35.2754 80.3952 36.8879 79.2911 38.0717C78.3021 39.1254 77.074 39.6517 75.6081 39.6517C74.0258 39.6517 72.8891 39.0842 72.1968 37.9492H72.1467V44.2679H69.4778V31.3342C69.4778 30.0517 69.444 28.7354 69.3789 27.3854H71.7261L71.8751 29.2867H71.9252C72.8152 27.8542 74.166 27.1392 75.9787 27.1392C77.3958 27.1392 78.5788 27.6979 79.5252 28.8167C80.4741 29.9367 80.9473 31.4092 80.9473 33.2354ZM78.2282 33.3329C78.2282 32.1654 77.9654 31.2029 77.4371 30.4454C76.86 29.6554 76.0851 29.2604 75.1136 29.2604C74.4552 29.2604 73.8568 29.4804 73.3222 29.9142C72.7864 30.3517 72.4359 30.9229 72.2719 31.6304C72.1893 31.9604 72.148 32.2304 72.148 32.4429V34.4429C72.148 35.3154 72.4159 36.0517 72.9517 36.6529C73.4875 37.2542 74.1835 37.5542 75.0398 37.5542C76.045 37.5542 76.8274 37.1667 77.387 36.3942C77.9478 35.6204 78.2282 34.6004 78.2282 33.3329Z" fill="white"/>
<path d="M94.7639 33.2354C94.7639 35.2754 94.2118 36.8879 93.1064 38.0717C92.1187 39.1254 90.8907 39.6517 89.4247 39.6517C87.8424 39.6517 86.7057 39.0842 86.0147 37.9492H85.9646V44.2679H83.2957V31.3342C83.2957 30.0517 83.2619 28.7354 83.1968 27.3854H85.544L85.693 29.2867H85.743C86.6319 27.8542 87.9826 27.1392 89.7965 27.1392C91.2124 27.1392 92.3954 27.6979 93.3443 28.8167C94.2894 29.9367 94.7639 31.4092 94.7639 33.2354ZM92.0449 33.3329C92.0449 32.1654 91.7807 31.2029 91.2524 30.4454C90.6753 29.6554 89.9029 29.2604 88.9303 29.2604C88.2705 29.2604 87.6734 29.4804 87.1376 29.9142C86.6018 30.3517 86.2525 30.9229 86.0886 31.6304C86.0072 31.9604 85.9646 32.2304 85.9646 32.4429V34.4429C85.9646 35.3154 86.2325 36.0517 86.7658 36.6529C87.3016 37.2529 87.9976 37.5542 88.8564 37.5542C89.8616 37.5542 90.644 37.1667 91.2036 36.3942C91.7645 35.6204 92.0449 34.6004 92.0449 33.3329Z" fill="white"/>
<path d="M110.212 34.7152C110.212 36.1302 109.72 37.2815 108.732 38.1702C107.647 39.1415 106.136 39.6265 104.194 39.6265C102.401 39.6265 100.964 39.2815 99.8765 38.5902L100.495 36.369C101.667 37.0765 102.952 37.4315 104.353 37.4315C105.358 37.4315 106.141 37.204 106.703 36.7515C107.262 36.299 107.542 35.6915 107.542 34.934C107.542 34.259 107.311 33.6902 106.849 33.229C106.39 32.7677 105.622 32.339 104.551 31.9427C101.634 30.8565 100.177 29.2652 100.177 27.1727C100.177 25.8052 100.688 24.684 101.71 23.8115C102.729 22.9377 104.089 22.5015 105.789 22.5015C107.305 22.5015 108.564 22.7652 109.57 23.2915L108.902 25.464C107.963 24.954 106.902 24.699 105.714 24.699C104.775 24.699 104.041 24.9302 103.516 25.3902C103.071 25.8015 102.848 26.3027 102.848 26.8965C102.848 27.554 103.102 28.0977 103.613 28.5252C104.058 28.9202 104.865 29.3477 106.037 29.809C107.47 30.3852 108.523 31.059 109.2 31.8315C109.875 32.6015 110.212 33.5652 110.212 34.7152Z" fill="white"/>
<path d="M119.036 29.3852H116.094V35.209C116.094 36.6902 116.612 37.4302 117.651 37.4302C118.128 37.4302 118.524 37.389 118.837 37.3065L118.911 39.3302C118.385 39.5265 117.693 39.6252 116.835 39.6252C115.781 39.6252 114.958 39.304 114.363 38.6627C113.771 38.0202 113.473 36.9427 113.473 35.429V29.3827H111.72V27.3827H113.473V25.1865L116.094 24.3965V27.3827H119.036V29.3852Z" fill="white"/>
<path d="M132.309 33.2839C132.309 35.1276 131.781 36.6414 130.727 37.8251C129.622 39.0439 128.154 39.6514 126.326 39.6514C124.563 39.6514 123.16 39.0676 122.113 37.9001C121.066 36.7326 120.543 35.2589 120.543 33.4826C120.543 31.6239 121.082 30.1014 122.162 28.9176C123.24 27.7326 124.694 27.1401 126.523 27.1401C128.286 27.1401 129.704 27.7239 130.775 28.8926C131.799 30.0264 132.309 31.4901 132.309 33.2839ZM129.54 33.3701C129.54 32.2639 129.304 31.3151 128.824 30.5239C128.265 29.5664 127.465 29.0889 126.428 29.0889C125.355 29.0889 124.54 29.5676 123.981 30.5239C123.501 31.3164 123.265 32.2801 123.265 33.4201C123.265 34.5264 123.501 35.4751 123.981 36.2651C124.558 37.2226 125.364 37.7001 126.404 37.7001C127.423 37.7001 128.223 37.2126 128.8 36.2401C129.292 35.4339 129.54 34.4751 129.54 33.3701Z" fill="white"/>
<path d="M140.985 29.7292C140.721 29.6804 140.439 29.6554 140.144 29.6554C139.205 29.6554 138.479 30.0092 137.968 30.7179C137.524 31.3429 137.301 32.1329 137.301 33.0867V39.3804H134.633L134.658 31.1629C134.658 29.7804 134.624 28.5217 134.558 27.3867H136.883L136.98 29.6817H137.054C137.336 28.8929 137.78 28.2579 138.389 27.7817C138.983 27.3529 139.625 27.1392 140.318 27.1392C140.564 27.1392 140.787 27.1567 140.985 27.1879V29.7292Z" fill="white"/>
<path d="M152.921 32.815C152.921 33.2925 152.89 33.695 152.824 34.0237H144.817C144.848 35.2087 145.235 36.115 145.978 36.74C146.653 37.2987 147.526 37.5787 148.597 37.5787C149.783 37.5787 150.864 37.39 151.837 37.0112L152.255 38.8612C151.118 39.3562 149.776 39.6025 148.228 39.6025C146.365 39.6025 144.903 39.055 143.839 37.9612C142.777 36.8675 142.245 35.3987 142.245 33.5562C142.245 31.7475 142.74 30.2412 143.73 29.04C144.767 27.7575 146.167 27.1162 147.93 27.1162C149.661 27.1162 150.972 27.7575 151.862 29.04C152.567 30.0587 152.921 31.3187 152.921 32.815ZM150.376 32.1237C150.394 31.3337 150.22 30.6512 149.858 30.075C149.396 29.3337 148.686 28.9637 147.731 28.9637C146.858 28.9637 146.149 29.325 145.607 30.05C145.162 30.6262 144.898 31.3175 144.817 32.1225H150.376V32.1237Z" fill="white"/>
<path d="M61.4032 12.5109C61.4032 13.9821 60.9613 15.0896 60.0788 15.8334C59.2613 16.5196 58.0996 16.8634 56.5949 16.8634C55.8488 16.8634 55.2103 16.8309 54.6758 16.7659V8.72713C55.3731 8.61463 56.1242 8.55713 56.9354 8.55713C58.3687 8.55713 59.4491 8.86838 60.1777 9.49088C60.9939 10.1946 61.4032 11.2009 61.4032 12.5109ZM60.0199 12.5471C60.0199 11.5934 59.7671 10.8621 59.2613 10.3521C58.7556 9.84338 58.017 9.58838 57.0443 9.58838C56.6312 9.58838 56.2794 9.61588 55.9877 9.67338V15.7846C56.1492 15.8096 56.4446 15.8209 56.874 15.8209C57.878 15.8209 58.6529 15.5421 59.1987 14.9846C59.7445 14.4271 60.0199 13.6146 60.0199 12.5471Z" fill="white"/>
<path d="M68.7378 13.7958C68.7378 14.7021 68.4787 15.4446 67.9604 16.0271C67.4171 16.6258 66.6973 16.9246 65.7985 16.9246C64.9322 16.9246 64.2424 16.6383 63.7279 16.0633C63.2146 15.4896 62.958 14.7658 62.958 13.8933C62.958 12.9808 63.2221 12.2321 63.7529 11.6508C64.2837 11.0696 64.9973 10.7783 65.8961 10.7783C66.7624 10.7783 67.4584 11.0646 67.9854 11.6383C68.4862 12.1958 68.7378 12.9158 68.7378 13.7958ZM67.377 13.8383C67.377 13.2946 67.2594 12.8283 67.0253 12.4396C66.7499 11.9696 66.358 11.7346 65.8485 11.7346C65.3215 11.7346 64.9209 11.9696 64.6455 12.4396C64.4102 12.8283 64.2937 13.3021 64.2937 13.8621C64.2937 14.4058 64.4114 14.8721 64.6455 15.2608C64.9297 15.7308 65.3253 15.9658 65.836 15.9658C66.3368 15.9658 66.7298 15.7271 67.0128 15.2483C67.2556 14.8521 67.377 14.3821 67.377 13.8383Z" fill="white"/>
<path d="M78.5724 10.8984L76.7259 16.7909H75.5241L74.7592 14.2322C74.5652 13.5934 74.4074 12.9584 74.2848 12.3284H74.261C74.1471 12.9759 73.9893 13.6097 73.7865 14.2322L72.9741 16.7909H71.7585L70.0222 10.8984H71.3705L72.0377 13.6997C72.1992 14.3622 72.3319 14.9934 72.4383 15.5909H72.4621C72.5597 15.0984 72.7212 14.4709 72.949 13.7122L73.7865 10.8997H74.8556L75.658 13.6522C75.8521 14.3234 76.0098 14.9697 76.1312 15.5922H76.1676C76.2564 14.9859 76.3904 14.3397 76.5681 13.6522L77.2842 10.8997H78.5724V10.8984Z" fill="white"/>
<path d="M85.3738 16.7912H84.0619V13.4162C84.0619 12.3762 83.6663 11.8562 82.8726 11.8562C82.4833 11.8562 82.1691 11.9987 81.925 12.2849C81.6834 12.5712 81.5607 12.9087 81.5607 13.2949V16.7899H80.2487V12.5824C80.2487 12.0649 80.2325 11.5037 80.2012 10.8962H81.3541L81.4155 11.8174H81.4518C81.6045 11.5312 81.8323 11.2949 82.1315 11.1062C82.4871 10.8862 82.8851 10.7749 83.3208 10.7749C83.8716 10.7749 84.3298 10.9524 84.6941 11.3087C85.1472 11.7449 85.3738 12.3962 85.3738 13.2612V16.7912Z" fill="white"/>
<path d="M88.9916 16.7911H87.6809V8.19482H88.9916V16.7911Z" fill="white"/>
<path d="M96.7153 13.7958C96.7153 14.7021 96.4562 15.4446 95.9379 16.0271C95.3946 16.6258 94.6736 16.9246 93.776 16.9246C92.9085 16.9246 92.2187 16.6383 91.7054 16.0633C91.1922 15.4896 90.9355 14.7658 90.9355 13.8933C90.9355 12.9808 91.1997 12.2321 91.7305 11.6508C92.2613 11.0696 92.9748 10.7783 93.8724 10.7783C94.7399 10.7783 95.4347 11.0646 95.963 11.6383C96.4637 12.1958 96.7153 12.9158 96.7153 13.7958ZM95.3533 13.8383C95.3533 13.2946 95.2357 12.8283 95.0016 12.4396C94.7274 11.9696 94.3343 11.7346 93.8261 11.7346C93.2978 11.7346 92.8972 11.9696 92.623 12.4396C92.3877 12.8283 92.2713 13.3021 92.2713 13.8621C92.2713 14.4058 92.3889 14.8721 92.623 15.2608C92.9072 15.7308 93.3028 15.9658 93.8136 15.9658C94.3143 15.9658 94.7061 15.7271 94.989 15.2483C95.2331 14.8521 95.3533 14.3821 95.3533 13.8383Z" fill="white"/>
<path d="M103.065 16.7908H101.887L101.789 16.1121H101.753C101.35 16.6533 100.775 16.9246 100.029 16.9246C99.4721 16.9246 99.0214 16.7458 98.6822 16.3908C98.3742 16.0683 98.2202 15.6671 98.2202 15.1908C98.2202 14.4708 98.5207 13.9221 99.1253 13.5421C99.7287 13.1621 100.577 12.9758 101.67 12.9846V12.8746C101.67 12.0983 101.262 11.7108 100.445 11.7108C99.8626 11.7108 99.3494 11.8571 98.9062 12.1471L98.6396 11.2871C99.1879 10.9483 99.8652 10.7783 100.664 10.7783C102.206 10.7783 102.98 11.5908 102.98 13.2158V15.3858C102.98 15.9746 103.009 16.4433 103.065 16.7908ZM101.703 14.7658V13.8571C100.256 13.8321 99.5322 14.2283 99.5322 15.0446C99.5322 15.3521 99.6148 15.5821 99.7838 15.7358C99.9528 15.8896 100.168 15.9658 100.425 15.9658C100.713 15.9658 100.982 15.8746 101.227 15.6933C101.474 15.5108 101.625 15.2796 101.682 14.9958C101.695 14.9321 101.703 14.8546 101.703 14.7658Z" fill="white"/>
<path d="M110.52 16.7911H109.355L109.294 15.8448H109.258C108.886 16.5648 108.252 16.9248 107.362 16.9248C106.651 16.9248 106.059 16.6461 105.59 16.0886C105.12 15.5311 104.886 14.8073 104.886 13.9186C104.886 12.9648 105.14 12.1923 105.651 11.6023C106.146 11.0523 106.751 10.7773 107.473 10.7773C108.265 10.7773 108.82 11.0436 109.135 11.5773H109.16V8.19482H110.473V15.2036C110.473 15.7773 110.488 16.3061 110.52 16.7911ZM109.16 14.3061V13.3236C109.16 13.1536 109.148 13.0161 109.124 12.9111C109.05 12.5961 108.891 12.3311 108.649 12.1173C108.405 11.9036 108.111 11.7961 107.772 11.7961C107.282 11.7961 106.899 11.9898 106.618 12.3786C106.338 12.7673 106.197 13.2636 106.197 13.8698C106.197 14.4523 106.331 14.9248 106.6 15.2886C106.884 15.6761 107.267 15.8698 107.747 15.8698C108.177 15.8698 108.522 15.7086 108.783 15.3848C109.036 15.0861 109.16 14.7261 109.16 14.3061Z" fill="white"/>
<path d="M121.74 13.7958C121.74 14.7021 121.481 15.4446 120.963 16.0271C120.419 16.6258 119.701 16.9246 118.801 16.9246C117.936 16.9246 117.246 16.6383 116.73 16.0633C116.217 15.4896 115.96 14.7658 115.96 13.8933C115.96 12.9808 116.224 12.2321 116.755 11.6508C117.286 11.0696 117.999 10.7783 118.9 10.7783C119.765 10.7783 120.462 11.0646 120.988 11.6383C121.488 12.1958 121.74 12.9158 121.74 13.7958ZM120.381 13.8383C120.381 13.2946 120.263 12.8283 120.029 12.4396C119.752 11.9696 119.361 11.7346 118.851 11.7346C118.325 11.7346 117.924 11.9696 117.648 12.4396C117.412 12.8283 117.296 13.3021 117.296 13.8621C117.296 14.4058 117.414 14.8721 117.648 15.2608C117.932 15.7308 118.327 15.9658 118.838 15.9658C119.339 15.9658 119.733 15.7271 120.016 15.2483C120.258 14.8521 120.381 14.3821 120.381 13.8383Z" fill="white"/>
<path d="M128.794 16.7912H127.484V13.4162C127.484 12.3762 127.088 11.8562 126.293 11.8562C125.904 11.8562 125.589 11.9987 125.347 12.2849C125.104 12.5712 124.982 12.9087 124.982 13.2949V16.7899H123.669V12.5824C123.669 12.0649 123.654 11.5037 123.623 10.8962H124.775L124.836 11.8174H124.872C125.026 11.5312 125.254 11.2949 125.552 11.1062C125.909 10.8862 126.306 10.7749 126.742 10.7749C127.292 10.7749 127.75 10.9524 128.114 11.3087C128.569 11.7449 128.794 12.3962 128.794 13.2612V16.7912Z" fill="white"/>
<path d="M137.624 11.8799H136.179V14.7424C136.179 15.4699 136.436 15.8337 136.944 15.8337C137.179 15.8337 137.374 15.8137 137.528 15.7724L137.562 16.7662C137.303 16.8637 136.963 16.9124 136.543 16.9124C136.025 16.9124 135.622 16.7549 135.33 16.4399C135.037 16.1249 134.892 15.5949 134.892 14.8512V11.8799H134.03V10.8987H134.892V9.81865L136.178 9.43115V10.8974H137.622V11.8799H137.624Z" fill="white"/>
<path d="M144.569 16.7911H143.255V13.4411C143.255 12.3848 142.86 11.8561 142.067 11.8561C141.459 11.8561 141.043 12.1623 140.816 12.7748C140.777 12.9036 140.754 13.0611 140.754 13.2461V16.7898H139.444V8.19482H140.754V11.7461H140.779C141.192 11.0998 141.785 10.7773 142.552 10.7773C143.095 10.7773 143.545 10.9548 143.901 11.3111C144.346 11.7548 144.569 12.4148 144.569 13.2873V16.7911Z" fill="white"/>
<path d="M151.733 13.5663C151.733 13.8013 151.716 13.9988 151.684 14.1601H147.75C147.767 14.7426 147.955 15.1863 148.319 15.4938C148.652 15.7688 149.082 15.9063 149.607 15.9063C150.19 15.9063 150.72 15.8138 151.199 15.6276L151.404 16.5376C150.844 16.7801 150.186 16.9013 149.423 16.9013C148.51 16.9013 147.79 16.6326 147.269 16.0951C146.746 15.5576 146.487 14.8363 146.487 13.9313C146.487 13.0426 146.728 12.3026 147.215 11.7126C147.723 11.0826 148.411 10.7676 149.278 10.7676C150.127 10.7676 150.772 11.0826 151.207 11.7126C151.559 12.2126 151.733 12.8313 151.733 13.5663ZM150.481 13.2276C150.491 12.8388 150.405 12.5038 150.227 12.2213C149.999 11.8576 149.653 11.6751 149.183 11.6751C148.755 11.6751 148.406 11.8526 148.139 12.2088C147.921 12.4926 147.792 12.8313 147.75 13.2276H150.481Z" fill="white"/>
</svg>
