<svg width="140" height="140" viewBox="0 0 140 140" fill="none" xmlns="http://www.w3.org/2000/svg">
<circle cx="70" cy="70" r="70" fill="#F6F7F8"/>
<circle cx="70" cy="70" r="50.75" fill="#E7E7E8"/>
<path d="M79.4486 72.6703C78.5948 71.8677 77.2161 71.8677 76.3623 72.6703L71.3279 77.431L61.9377 68.5512C61.0839 67.7486 59.7051 67.7486 58.8513 68.5512L43.5292 83.0404C42.683 83.8567 42.6965 85.1672 43.5597 85.9675C43.9613 86.3398 44.499 86.5517 45.0614 86.5592H88.8389C90.0477 86.5658 91.0334 85.6446 91.0405 84.5014C91.0439 83.9452 90.8105 83.4113 90.393 83.0197L79.4486 72.6703Z" fill="#161735" fill-opacity="0.15"/>
<path d="M73.5163 65.8603C77.143 65.8603 80.0829 63.0801 80.0829 59.6506C80.0829 56.2211 77.143 53.4409 73.5163 53.4409C69.8897 53.4409 66.9497 56.2211 66.9497 59.6506C66.9497 63.0801 69.8897 65.8603 73.5163 65.8603Z" fill="#161735" fill-opacity="0.15"/>
</svg>
