<svg width="205" height="142" viewBox="0 0 205 142" fill="none" xmlns="http://www.w3.org/2000/svg">
<path d="M155.634 81.8866C151.998 78.4685 146.127 78.4685 142.491 81.8866L121.051 102.161L81.0608 64.3448C77.4247 60.9267 71.5533 60.9267 67.9172 64.3448L2.66558 126.05C-0.938413 129.526 -0.880736 135.107 2.7955 138.515C4.50544 140.101 6.79565 141.003 9.19074 141.035H195.624C200.772 141.063 204.97 137.14 205 132.271C205.014 129.903 204.02 127.629 202.242 125.961L155.634 81.8866Z" fill="#161735" fill-opacity="0.15"/>
<path d="M130.375 52.8898C145.819 52.8898 158.34 41.05 158.34 26.4449C158.34 11.8398 145.819 0 130.375 0C114.93 0 102.41 11.8398 102.41 26.4449C102.41 41.05 114.93 52.8898 130.375 52.8898Z" fill="#161735" fill-opacity="0.15"/>
</svg>
