<svg width="171" height="50" viewBox="0 0 171 50" fill="none" xmlns="http://www.w3.org/2000/svg">
<path fill-rule="evenodd" clip-rule="evenodd" d="M164.664 50H6.33566C2.84381 50 0 47.182 0 43.75V6.25C0 2.80549 2.84381 0 6.33566 0H164.664C168.153 0 171 2.80549 171 6.25V43.75C171 47.182 168.153 50 164.664 50Z" fill="black"/>
<path fill-rule="evenodd" clip-rule="evenodd" d="M164.664 1.00062C167.593 1.00062 169.99 3.36035 169.99 6.25V43.75C169.99 46.6397 167.609 48.9994 164.664 48.9994H6.33566C3.40691 48.9994 1.00981 46.6397 1.00981 43.75V6.25C1.00981 3.36035 3.39118 1.00062 6.33566 1.00062H164.664ZM164.664 0H6.33566C2.84381 0 0 2.81796 0 6.25V43.75C0 47.1945 2.84381 50 6.33566 50H164.664C168.153 50 171 47.1945 171 43.75V6.25C171 2.81796 168.153 0 164.664 0Z" fill="#A6A6A6"/>
<path d="M90.0835 16.5399C88.9416 16.5399 87.979 16.1441 87.2177 15.3648C86.4627 14.6073 86.0412 13.563 86.06 12.4969C86.06 11.3592 86.4501 10.3959 87.2177 9.63222C87.9758 8.85292 88.9384 8.45703 90.0804 8.45703C91.2097 8.45703 92.1723 8.85292 92.9462 9.63222C93.7138 10.4209 94.1039 11.3841 94.1039 12.4969C94.0913 13.6378 93.7012 14.601 92.9462 15.3616C92.1881 16.1472 91.2254 16.5399 90.0835 16.5399ZM56.1056 16.5399C54.9889 16.5399 54.02 16.1503 53.2272 15.3803C52.4408 14.6135 52.0413 13.6441 52.0413 12.5C52.0413 11.356 52.4408 10.3866 53.2272 9.61975C54.0042 8.8498 54.9732 8.46015 56.1056 8.46015C56.6593 8.46015 57.1972 8.56925 57.7132 8.79057C58.2196 9.00566 58.6317 9.29868 58.9369 9.65716L59.0124 9.74756L58.1599 10.5767L58.0718 10.4739C57.5905 9.90653 56.9456 9.6291 56.0931 9.6291C55.3318 9.6291 54.668 9.89718 54.1206 10.4271C53.5701 10.9601 53.2901 11.6584 53.2901 12.5032C53.2901 13.3479 53.5701 14.0462 54.1206 14.5792C54.668 15.1092 55.3318 15.3772 56.0931 15.3772C56.9047 15.3772 57.5873 15.1092 58.119 14.5792C58.4335 14.2675 58.6286 13.8311 58.6978 13.2794H55.9641V12.1135H59.8712L59.8869 12.2195C59.9152 12.4159 59.9435 12.6185 59.9435 12.8055C59.9435 13.881 59.6164 14.7507 58.9683 15.3928C58.2322 16.1534 57.2696 16.5399 56.1056 16.5399ZM101.283 16.3747H100.078L96.3877 10.5237L96.4192 11.5774V16.3716H95.2143V8.62536H96.589L96.6268 8.68459L100.097 14.1958L100.065 13.1453V8.62536H101.283V16.3747ZM81.0299 16.3747H79.8093V9.7912H77.6922V8.62536H83.1439V9.7912H81.0267V16.3747H81.0299ZM76.6981 16.3747H75.4807V8.62536H76.6981V16.3747ZM69.856 16.3747H68.6385V9.7912H66.5214V8.62536H71.9731V9.7912H69.856V16.3747ZM65.7507 16.3623H61.0823V8.62536H65.7507V9.7912H62.3029V11.9171H65.4141V13.0705H62.3029V15.1964H65.7507V16.3623ZM88.1111 14.5636C88.6553 15.1029 89.3159 15.3741 90.0835 15.3741C90.8731 15.3741 91.518 15.1092 92.0559 14.5636C92.5907 14.0337 92.8613 13.3386 92.8613 12.5C92.8613 11.6615 92.5907 10.9633 92.0591 10.4365C91.5149 9.89718 90.8511 9.62598 90.0867 9.62598C89.2971 9.62598 88.6522 9.89095 88.1174 10.4365C87.5826 10.9664 87.3121 11.6615 87.3121 12.5C87.3121 13.3386 87.5795 14.0368 88.1111 14.5636Z" fill="white"/>
<path fill-rule="evenodd" clip-rule="evenodd" d="M85.9469 27.1945C82.9741 27.1945 80.5644 29.4296 80.5644 32.5125C80.5644 35.5673 82.9898 37.8304 85.9469 37.8304C88.9197 37.8304 91.3294 35.5798 91.3294 32.5125C91.3294 29.4296 88.9197 27.1945 85.9469 27.1945ZM85.9469 35.7232C84.3205 35.7232 82.9206 34.389 82.9206 32.5C82.9206 30.5829 84.3236 29.2768 85.9469 29.2768C87.5733 29.2768 88.9732 30.5829 88.9732 32.5C88.9763 34.4015 87.5733 35.7232 85.9469 35.7232ZM74.2036 27.1945C71.2308 27.1945 68.8211 29.4296 68.8211 32.5125C68.8211 35.5673 71.2465 37.8304 74.2036 37.8304C77.1764 37.8304 79.5861 35.5798 79.5861 32.5125C79.5861 29.4296 77.1732 27.1945 74.2036 27.1945ZM74.2036 35.7232C72.5772 35.7232 71.1773 34.389 71.1773 32.5C71.1773 30.5829 72.5803 29.2768 74.2036 29.2768C75.83 29.2768 77.2298 30.5829 77.2298 32.5C77.2298 34.4015 75.83 35.7232 74.2036 35.7232ZM60.2299 28.8186V31.0692H65.6816C65.5148 32.3317 65.0933 33.2637 64.4484 33.9027C63.6494 34.6945 62.4162 35.5549 60.2425 35.5549C56.8922 35.5549 54.2717 32.8741 54.2717 29.5542C54.2717 26.2344 56.8922 23.5536 60.2425 23.5536C62.0513 23.5536 63.3694 24.2612 64.3477 25.1652L65.9584 23.5692C64.5994 22.2787 62.7906 21.2905 60.255 21.2905C55.659 21.2905 51.8022 25 51.8022 29.5418C51.8022 34.096 55.6559 37.793 60.255 37.793C62.7371 37.793 64.5994 36.9888 66.0716 35.4738C67.5722 33.9869 68.0472 31.889 68.0472 30.1964C68.0472 29.6696 68.0063 29.1958 67.9214 28.7936H60.2267C60.2299 28.7905 60.2299 28.8186 60.2299 28.8186ZM117.386 30.5704C116.936 29.3766 115.577 27.182 112.79 27.182C110.028 27.182 107.732 29.336 107.732 32.5C107.732 35.4863 110.003 37.8179 113.057 37.8179C115.511 37.8179 116.939 36.331 117.528 35.4582L115.706 34.2487C115.102 35.1372 114.262 35.7201 113.07 35.7201C111.865 35.7201 111.022 35.1777 110.462 34.1085L117.638 31.1627C117.638 31.1658 117.386 30.5704 117.386 30.5704ZM110.069 32.3473C110.012 30.293 111.68 29.2488 112.872 29.2488C113.812 29.2488 114.596 29.707 114.863 30.3741L110.069 32.3473ZM104.24 37.5H106.596V21.8766H104.24V37.5ZM100.37 28.3759H100.285C99.7538 27.7494 98.744 27.182 97.4543 27.182C94.7772 27.182 92.3109 29.5168 92.3109 32.5156C92.3109 35.5019 94.7646 37.8086 97.4543 37.8086C98.7283 37.8086 99.7538 37.2382 100.285 36.5991H100.37V37.3628C100.37 39.3921 99.2757 40.4863 97.5109 40.4863C96.067 40.4863 95.1704 39.4576 94.8055 38.5973L92.7576 39.4451C93.3458 40.8479 94.9156 42.5842 97.5077 42.5842C100.27 42.5842 102.61 40.9726 102.61 37.0418V27.5H100.383V28.3759C100.386 28.3759 100.37 28.3759 100.37 28.3759ZM97.665 35.7232C96.0387 35.7232 94.6797 34.3766 94.6797 32.5156C94.6797 30.639 96.0387 29.2799 97.665 29.2799C99.2757 29.2799 100.525 30.6546 100.525 32.5156C100.54 34.3766 99.2788 35.7232 97.665 35.7232ZM128.418 21.8766H122.784V37.5H125.141V31.5835H128.422C131.03 31.5835 133.593 29.7101 133.593 26.7363C133.593 23.7625 131.039 21.8766 128.418 21.8766ZM128.488 29.4015H125.137V24.0399H128.488C130.252 24.0399 131.25 25.4832 131.25 26.7207C131.25 27.9458 130.24 29.4015 128.488 29.4015ZM143.037 27.1665C141.326 27.1665 139.561 27.9177 138.831 29.5542L140.92 30.4146C141.37 29.5542 142.194 29.2612 143.065 29.2612C144.286 29.2612 145.519 29.9844 145.547 31.2749V31.4401C145.126 31.2032 144.201 30.8416 143.094 30.8416C140.838 30.8416 138.551 32.0636 138.551 34.3547C138.551 36.4526 140.401 37.7992 142.461 37.7992C144.044 37.7992 144.915 37.0916 145.459 36.2718H145.544V37.4813H147.816V31.4963C147.816 28.7095 145.727 27.1665 143.037 27.1665ZM142.741 35.7232C141.971 35.7232 140.892 35.3491 140.892 34.389C140.892 33.1795 142.238 32.7213 143.386 32.7213C144.424 32.7213 144.915 32.9426 145.532 33.2481C145.362 34.6509 144.166 35.7107 142.741 35.7232ZM156.102 27.5L153.396 34.2768H153.311L150.508 27.5H147.973L152.179 36.9732L149.782 42.2381H152.235L158.706 27.5H156.102ZM134.893 37.5H137.249V21.8766H134.893V37.5Z" fill="white"/>
<path fill-rule="evenodd" clip-rule="evenodd" d="M13.1621 9.41717C12.7972 9.80682 12.5864 10.4022 12.5864 11.1815V38.8218C12.5864 39.6011 12.7972 40.1965 13.1747 40.5705L13.2722 40.6547L28.9006 25.1684V24.8224L13.2596 9.33301L13.1621 9.41717Z" fill="url(#paint0_linear_0_483)"/>
<path fill-rule="evenodd" clip-rule="evenodd" d="M34.1006 30.3458L28.8879 25.1806V24.819L34.1006 19.6538L34.2138 19.7224L40.3796 23.195C42.1444 24.18 42.1444 25.8072 40.3796 26.8047L34.2138 30.2773L34.1006 30.3458Z" fill="url(#paint1_linear_0_483)"/>
<path fill-rule="evenodd" clip-rule="evenodd" d="M34.2139 30.2774L28.888 25L13.1621 40.5829C13.7378 41.1939 14.7036 41.2625 15.7826 40.6671L34.2139 30.2774Z" fill="url(#paint2_linear_0_483)"/>
<path fill-rule="evenodd" clip-rule="evenodd" d="M34.2139 19.7226L15.7826 9.34849C14.7036 8.73752 13.7346 8.82168 13.1621 9.43265L28.888 25L34.2139 19.7226Z" fill="url(#paint3_linear_0_483)"/>
<path opacity="0.2" fill-rule="evenodd" clip-rule="evenodd" d="M34.1007 30.165L15.7953 40.4705C14.7729 41.0534 13.8606 41.0129 13.2723 40.483L13.1748 40.5796L13.2723 40.6638C13.8606 41.1906 14.7729 41.2342 15.7953 40.6513L34.2266 30.2773L34.1007 30.165Z" fill="black"/>
<path opacity="0.12" fill-rule="evenodd" clip-rule="evenodd" d="M40.3795 26.6241L34.0847 30.1652L34.198 30.2774L40.3638 26.8049C41.2477 26.3061 41.6819 25.6515 41.6819 25C41.6284 25.5985 41.1785 26.1658 40.3795 26.6241Z" fill="black"/>
<path opacity="0.25" fill-rule="evenodd" clip-rule="evenodd" d="M15.7826 9.52936L40.3797 23.376C41.1787 23.8218 41.6286 24.4047 41.6978 25.0001C41.6978 24.3486 41.2636 23.694 40.3797 23.1952L15.7826 9.34856C14.0178 8.34794 12.5864 9.18335 12.5864 11.1815V11.3623C12.5864 9.36103 14.0178 8.54121 15.7826 9.52936Z" fill="white"/>
<defs>
<linearGradient id="paint0_linear_0_483" x1="27.4988" y1="10.8833" x2="2.49534" y2="17.6066" gradientUnits="userSpaceOnUse">
<stop stop-color="#00A0FF"/>
<stop offset="0.00657" stop-color="#00A1FF"/>
<stop offset="0.2601" stop-color="#00BEFF"/>
<stop offset="0.5122" stop-color="#00D2FF"/>
<stop offset="0.7604" stop-color="#00DFFF"/>
<stop offset="1" stop-color="#00E3FF"/>
</linearGradient>
<linearGradient id="paint1_linear_0_483" x1="42.6811" y1="24.9999" x2="12.1574" y2="24.9999" gradientUnits="userSpaceOnUse">
<stop stop-color="#FFE000"/>
<stop offset="0.4087" stop-color="#FFBD00"/>
<stop offset="0.7754" stop-color="#FFA500"/>
<stop offset="1" stop-color="#FF9C00"/>
</linearGradient>
<linearGradient id="paint2_linear_0_483" x1="31.3179" y1="27.8717" x2="11.4909" y2="61.5484" gradientUnits="userSpaceOnUse">
<stop stop-color="#FF3A44"/>
<stop offset="1" stop-color="#C31162"/>
</linearGradient>
<linearGradient id="paint3_linear_0_483" x1="9.20215" y1="0.223477" x2="18.0477" y2="15.2639" gradientUnits="userSpaceOnUse">
<stop stop-color="#32A071"/>
<stop offset="0.0685" stop-color="#2DA771"/>
<stop offset="0.4762" stop-color="#15CF74"/>
<stop offset="0.8009" stop-color="#06E775"/>
<stop offset="1" stop-color="#00F076"/>
</linearGradient>
</defs>
</svg>
