<svg width="118" height="118" viewBox="0 0 118 118" fill="none" xmlns="http://www.w3.org/2000/svg">
<circle cx="59" cy="59" r="59" fill="#E7E7E8"/>
<path d="M70.1019 63.0389C69.1413 62.1359 67.59 62.1359 66.6294 63.0389L60.965 68.3954L50.3996 58.4043C49.4389 57.5013 47.8876 57.5013 46.927 58.4043L29.6874 74.7068C28.7352 75.6253 28.7505 77.0998 29.7217 78.0002C30.1735 78.4192 30.7786 78.6576 31.4114 78.666H80.6674C82.0274 78.6735 83.1365 77.6369 83.1445 76.3506C83.1483 75.7249 82.8857 75.1242 82.4159 74.6836L70.1019 63.0389Z" fill="#161735" fill-opacity="0.15"/>
<path d="M63.4275 55.3769C67.508 55.3769 70.8159 52.2488 70.8159 48.3901C70.8159 44.5314 67.508 41.4033 63.4275 41.4033C59.347 41.4033 56.0391 44.5314 56.0391 48.3901C56.0391 52.2488 59.347 55.3769 63.4275 55.3769Z" fill="#161735" fill-opacity="0.15"/>
</svg>
