<svg width="59" height="35" viewBox="0 0 59 35" fill="none" xmlns="http://www.w3.org/2000/svg">
<rect width="59" height="35" rx="10" fill="white" fill-opacity="0.1"/>
<path d="M15.2571 17.5973C15.2521 17.4428 15.1792 17.363 15.0379 17.3578H14.2827C14.104 17.3687 14.0117 17.4668 14.0074 17.6513V19.0098C14.0117 19.2002 14.1138 19.2974 14.3123 19.3028H15.0043C15.0762 19.3028 15.1359 19.2762 15.1835 19.2217C15.2333 19.1807 15.2571 19.1281 15.2571 19.0629V17.5973ZM13.0378 17.4044C13.0428 17.0645 13.1185 16.8062 13.2654 16.6296C13.3422 16.5556 13.4384 16.4937 13.5555 16.4425C13.6771 16.388 13.7949 16.3616 13.9091 16.3616H15.2951C15.9065 16.3668 16.2173 16.7013 16.2271 17.3656V19.4104C16.2226 19.6463 16.1302 19.8511 15.9517 20.0222C15.7749 20.2022 15.5638 20.2938 15.318 20.2993H14.0074V21.7735H13.0378V17.4044Z" fill="white"/>
<path d="M17.9771 19.1055C17.9771 19.1624 18.0033 19.2074 18.0545 19.2412C18.1002 19.2817 18.1577 19.3028 18.2306 19.3028H18.9752C19.1435 19.3028 19.2308 19.2376 19.2358 19.1055V18.8275C19.2358 18.6756 19.1471 18.5989 18.9681 18.5989H18.2306C18.1335 18.5989 18.0664 18.6151 18.029 18.6456C17.9945 18.6815 17.9771 18.7527 17.9771 18.8582V19.1055ZM19.2358 17.5732C19.2408 17.4242 19.154 17.353 18.975 17.3578H17.0223V16.3616H19.2208C19.8612 16.372 20.1863 16.6815 20.1973 17.2926V19.3766C20.1918 19.6401 20.1111 19.8575 19.9545 20.0303C19.7908 20.2093 19.5797 20.2993 19.321 20.2993H17.9921C17.3453 20.2938 17.0173 19.9984 17.0073 19.4111V18.607C17.0123 17.9934 17.3257 17.6815 17.9462 17.6708H19.2358V17.5732Z" fill="white"/>
<path d="M22.9202 20.777C22.997 20.7723 23.0637 20.7447 23.1177 20.6952C23.1696 20.649 23.1958 20.5959 23.1958 20.5357V20.2993H21.9544C21.7926 20.2993 21.6631 20.2786 21.5665 20.2374C21.4644 20.2 21.3628 20.1303 21.2605 20.0313C21.1636 19.9263 21.0939 19.8165 21.0515 19.7018C21.0075 19.5968 20.9851 19.4633 20.9851 19.3028V16.3616H21.9544V18.9872C21.9544 19.1976 22.0403 19.3028 22.2143 19.3028H22.8987C22.9801 19.3028 23.0508 19.2762 23.1101 19.2217C23.1672 19.1755 23.1958 19.1207 23.1958 19.0565V16.3616H24.1572V20.7006C24.1517 21.0218 24.0694 21.2788 23.9107 21.4738C23.7495 21.6688 23.5292 21.7685 23.2481 21.7735H20.9851V20.777H22.9202Z" fill="white"/>
<path d="M24.9189 19.3028H26.6465C26.8045 19.2974 26.8866 19.234 26.8916 19.1126V19.0231C26.8916 18.9972 26.8838 18.9684 26.8685 18.9374C26.83 18.8622 26.7826 18.8248 26.7262 18.8248H25.8697C25.6155 18.8198 25.3987 18.7322 25.2164 18.5632C25.032 18.4071 24.9375 18.215 24.932 17.9896V17.2466C24.942 16.667 25.2569 16.372 25.8771 16.3616H27.8807V17.3578H26.1831C25.9839 17.3578 25.8835 17.419 25.8835 17.5408V17.6372C25.8835 17.7636 25.9861 17.827 26.1905 17.827H27.0444C27.2719 17.8322 27.4659 17.9193 27.6275 18.0893C27.7907 18.2604 27.8754 18.464 27.8807 18.7003V19.4271C27.8754 19.6313 27.781 19.8351 27.5994 20.0384C27.5108 20.1381 27.4202 20.2067 27.3295 20.2455C27.2357 20.2812 27.1084 20.2993 26.9459 20.2993H24.9189V19.3028Z" fill="white"/>
<path d="M29.5394 19.1055C29.5394 19.1624 29.5656 19.2074 29.6179 19.2412C29.6631 19.2817 29.721 19.3028 29.7928 19.3028H30.5389C30.7072 19.3028 30.7941 19.2376 30.7991 19.1055V18.8275C30.7991 18.6756 30.7091 18.5989 30.5308 18.5989H29.7928C29.696 18.5989 29.6291 18.6151 29.592 18.6456C29.5575 18.6815 29.5394 18.7527 29.5394 18.8582V19.1055ZM30.7991 17.5732C30.8033 17.4242 30.7165 17.353 30.5373 17.3578H28.5851V16.3616H30.7843C31.424 16.372 31.7493 16.6815 31.7593 17.2926V19.3766C31.7541 19.6401 31.6727 19.8575 31.5171 20.0303C31.3545 20.2093 31.1432 20.2993 30.8842 20.2993H29.5541C28.9078 20.2938 28.5796 19.9984 28.5706 19.4111V18.607C28.5748 17.9934 28.888 17.6815 29.5089 17.6708H30.7991V17.5732Z" fill="white"/>
<path d="M32.5476 15.7965C32.5536 15.5275 32.6526 15.3116 32.8468 15.1498C33.0352 14.9853 33.2827 14.9008 33.5888 14.896H34.2045V15.8584H33.8315C33.6266 15.8632 33.5222 15.9612 33.5176 16.1507V16.3616H34.2045V17.3588H33.5176V20.2996H32.5476V15.7965Z" fill="white"/>
<path d="M36.9616 17.5546V17.5316C36.9616 17.4804 36.9409 17.4368 36.8992 17.4044C36.854 17.373 36.7988 17.3578 36.7324 17.3578H36.0575C35.9709 17.3578 35.9011 17.3821 35.8471 17.4318C35.78 17.4778 35.746 17.5382 35.746 17.6127V18.0126L36.9616 17.5546ZM35.7614 18.9629V19.025C35.7614 19.1048 35.7821 19.1681 35.8243 19.214C35.8547 19.2728 35.8957 19.3028 35.9502 19.3028H37.9419V20.2993H35.8243C35.631 20.2993 35.4804 20.2812 35.374 20.245C35.2576 20.2067 35.1531 20.1441 35.062 20.057C34.9554 19.9515 34.8828 19.8441 34.8464 19.7337C34.8064 19.6185 34.7866 19.4657 34.7866 19.2752L34.7783 17.2811C34.789 16.6786 35.1036 16.372 35.7219 16.3616H37.0289C37.6327 16.372 37.9385 16.6894 37.9483 17.3152V18.1029L35.7614 18.9629Z" fill="white"/>
<path d="M40.0009 20.2999C39.854 20.2999 39.7201 20.2863 39.5984 20.2615C39.4711 20.2408 39.3443 20.1818 39.2146 20.082C39.0815 19.9661 38.9894 19.8361 38.939 19.6926C38.8857 19.5514 38.86 19.3915 38.86 19.2115V17.3522C38.8545 17.2005 38.8697 17.0675 38.9052 16.952C38.9378 16.8368 39.0063 16.724 39.1099 16.6135C39.2279 16.4976 39.3483 16.4205 39.4754 16.3826C39.5977 16.3519 39.7355 16.3364 39.89 16.3364H41.376V16.5695H39.9245C39.6682 16.5695 39.4668 16.6221 39.3195 16.7275C39.1689 16.8425 39.092 17.0408 39.092 17.3203V19.1808C39.092 19.3117 39.112 19.4391 39.1517 19.5619C39.1924 19.6826 39.2603 19.7885 39.3576 19.8811C39.4633 19.9614 39.5685 20.0113 39.671 20.0318C39.7779 20.0554 39.8926 20.0666 40.0142 20.0666H41.3993V20.2999H40.0009Z" fill="white"/>
<path d="M45.1976 17.8875H43.2494C43.0162 17.8928 42.8334 17.9649 42.7018 18.1039C42.5657 18.2451 42.4984 18.4386 42.4984 18.6845V19.2779C42.4984 19.3929 42.5103 19.4981 42.535 19.5929C42.5595 19.6926 42.6207 19.7816 42.7173 19.858C42.8856 19.9975 43.0719 20.0666 43.2756 20.0666H44.456C44.9494 20.0613 45.1976 19.8014 45.1976 19.2853V17.8875ZM45.4291 19.2272C45.4291 19.377 45.4177 19.5084 45.3984 19.624C45.367 19.7497 45.3025 19.8709 45.2047 19.9861C45.0012 20.2006 44.749 20.3051 44.4479 20.2998H43.2897C42.9886 20.2998 42.7447 20.2099 42.5557 20.0309C42.3627 19.854 42.2649 19.6081 42.2649 19.2927V18.6933C42.2746 18.017 42.6114 17.6707 43.2749 17.6549H45.2047V17.3926C45.2047 17.1765 45.1421 16.9872 45.0177 16.8244C44.9387 16.7187 44.8451 16.648 44.739 16.6116C44.6317 16.5835 44.5112 16.5695 44.377 16.5695H42.2718V16.3364H44.2675C44.4501 16.3364 44.615 16.3493 44.7645 16.3745C44.8413 16.3897 44.9111 16.4197 44.9755 16.4631C45.0438 16.5042 45.1076 16.5645 45.1666 16.6435C45.3456 16.8744 45.433 17.1408 45.4291 17.4407V19.2272Z" fill="white"/>
<path d="M47.6077 16.5695C47.0674 16.5795 46.8011 16.8744 46.8111 17.4548V20.2999H46.5791V17.4557C46.5682 16.7092 46.9235 16.3364 47.645 16.3364H47.903V16.5695H47.6077Z" fill="white"/>
<path d="M51.5323 16.5702H49.696C49.5637 16.5702 49.4452 16.585 49.3383 16.6131C49.2264 16.6383 49.1184 16.7062 49.0173 16.8166C48.9204 16.9173 48.8595 17.0171 48.834 17.1168C48.8 17.2175 48.7845 17.3382 48.79 17.4789V19.2927C48.79 19.5943 48.8773 19.7995 49.0544 19.9098C49.1417 19.9609 49.2376 19.9993 49.3452 20.025C49.4523 20.0535 49.5718 20.0676 49.7034 20.0676H50.5063C50.8062 20.0676 51.0516 19.9985 51.24 19.8593C51.4295 19.7286 51.5259 19.5032 51.5323 19.1818V16.5702ZM51.7641 19.1978C51.7436 19.9486 51.3464 20.3166 50.5727 20.3011H49.7119C49.5301 20.3011 49.3676 20.2852 49.2238 20.2549C49.0758 20.2166 48.9342 20.1264 48.7978 19.9857C48.6953 19.8593 48.6293 19.7315 48.6029 19.6005C48.5675 19.4699 48.552 19.3244 48.5575 19.1656V17.4729C48.5675 16.7105 48.9513 16.3315 49.71 16.3372H51.5323V15.052H51.7641V19.1978Z" fill="white"/>
<path d="M7.65227 16.2118C7.72843 16.1783 7.80459 16.1521 7.88074 16.1357C8.02068 15.4672 8.61255 14.9659 9.32198 14.9659C10.0319 14.9659 10.624 15.468 10.7637 16.1361C10.9815 16.1776 11.1616 16.2656 11.302 16.3968C11.3077 16.2685 11.3025 16.1449 11.2873 16.0285C11.1975 15.0188 10.351 14.2263 9.31889 14.2263C8.25628 14.2263 7.3912 15.0688 7.34623 16.1219C7.34004 16.2128 7.33813 16.3075 7.34147 16.4066C7.43071 16.3313 7.53257 16.2637 7.65227 16.2118Z" fill="white"/>
<path d="M10.4753 16.3616H8.10734C7.99335 16.3616 7.87531 16.388 7.7537 16.4425C7.63637 16.4937 7.54022 16.5556 7.46312 16.6296C7.31628 16.8062 7.24108 17.0645 7.23584 17.4044V19.2559C7.24108 19.5966 7.31628 19.8546 7.46312 20.0303C7.54022 20.1055 7.63637 20.1674 7.7537 20.2191C7.87531 20.2724 7.99335 20.2993 8.10734 20.2993H10.4753C11.0869 20.2938 11.398 19.9582 11.4077 19.2947V17.3656C11.398 16.7013 11.0869 16.3668 10.4753 16.3616Z" fill="white"/>
</svg>
