<svg width="59" height="35" viewBox="0 0 59 35" fill="none" xmlns="http://www.w3.org/2000/svg">
<rect width="59" height="35" rx="10" fill="white" fill-opacity="0.1"/>
<path d="M39.4522 15.5585C39.2638 16.0619 38.9255 16.3733 38.282 16.3733H38.2796L37.9467 16.3728L38.5157 14.8495H38.8395C39.4319 14.8499 39.6531 15.0217 39.4522 15.5585ZM41.1599 14.167C40.8705 13.7534 40.2815 13.5502 39.3588 13.5493H37.2228L34.9124 19.848H36.875L37.7147 17.6309C37.7557 17.7218 38.2514 19.848 38.2514 19.848H40.3143C40.3143 19.848 39.9391 18.2856 39.6631 17.6546C39.5921 17.4926 39.5182 17.3105 39.4195 17.1589C40.0022 16.9438 40.8465 16.4825 41.196 15.5472C41.411 14.9723 41.3984 14.5082 41.1599 14.167ZM21.4408 13.5457H17.8025C17.2288 13.5457 16.6719 13.5457 16.1725 13.7969C15.6732 14.0486 15.2327 14.552 14.8933 15.5584C14.8197 15.7751 14.7807 15.9614 14.7758 16.123C14.7707 16.2858 14.799 16.4236 14.8609 16.5436C14.9372 16.6897 15.061 16.8276 15.2157 16.9438C15.3706 17.0596 15.5561 17.1543 15.7559 17.2147C15.7637 17.2167 15.8686 17.2465 15.9957 17.2823C16.1189 17.3177 16.2419 17.3536 16.3647 17.3901C16.4195 17.4067 16.4802 17.4284 16.535 17.461C16.5897 17.4933 16.6387 17.5365 16.6698 17.5969C16.6901 17.6375 16.7011 17.6819 16.7021 17.7271C16.7034 17.774 16.6955 17.8245 16.6768 17.8776C16.6303 18.0147 16.5597 18.1023 16.4253 18.1566C16.2912 18.2101 16.0933 18.2276 15.7935 18.2301H12.0495L11.4575 19.8439H15.4652C15.8421 19.8439 16.5316 19.8439 17.1941 19.5644C17.8566 19.285 18.492 18.7265 18.7609 17.6091C18.8623 17.189 18.8311 16.8471 18.6651 16.5783C18.4991 16.3094 18.1981 16.1149 17.7606 15.99C17.7606 15.99 17.6626 15.9618 17.5473 15.9288C17.4323 15.8962 17.2998 15.8586 17.2318 15.8391C17.1197 15.8073 17.0338 15.7428 16.9828 15.6608C16.9321 15.5792 16.9167 15.4797 16.9458 15.378C16.9756 15.2729 17.0483 15.1884 17.1533 15.1305C17.2588 15.0726 17.3973 15.0408 17.5589 15.0408H19.8883C19.9045 15.017 19.9194 14.9918 19.936 14.9681C20.3616 14.3706 20.8767 13.8871 21.4408 13.5457Z" fill="white"/>
<path d="M23.1497 16.6659C22.606 18.1431 22.2112 18.5151 21.6172 18.5151H21.6161C21.0373 18.5142 20.8344 18.1509 21.3761 16.6807C21.7803 15.5829 22.3042 14.8807 22.9376 14.8807H22.938C23.5408 14.8816 23.6789 15.2282 23.1497 16.6659ZM25.0155 14.1358C24.6983 13.6856 24.1558 13.4566 23.4009 13.4558C22.9068 13.4558 22.4275 13.5684 21.9779 13.779C21.3353 14.0808 20.7526 14.5847 20.2769 15.2532C19.9681 15.6873 19.7037 16.1898 19.4962 16.7524C19.1055 17.8143 19.1101 18.6759 19.5095 19.2437C19.7361 19.5644 20.2063 19.9479 21.1631 19.9487H21.1668C22.9098 19.9487 24.2114 18.8146 25.0354 16.5778C25.2529 15.9855 25.5402 14.8813 25.0155 14.1358ZM31.981 13.5457H28.2731C27.2366 13.5457 26.465 14.0663 26.1005 15.0409L24.3393 19.8439H26.2686L27.1735 17.3746L28.8786 17.376L29.3635 16.0537L27.6641 16.0525L27.9376 15.2868C27.9949 15.1497 28.1311 15.0405 28.3307 15.0405C28.4416 15.0405 29.693 15.0408 30.3411 15.0412C30.3576 15.0175 30.3726 14.9918 30.3892 14.9681C30.8145 14.3707 31.4169 13.8872 31.981 13.5457ZM33.6674 16.6659C33.1242 18.1431 32.7293 18.5151 32.1353 18.5151H32.1341C31.555 18.5142 31.3529 18.1509 31.8942 16.6807C32.298 15.5829 32.8223 14.8807 33.4557 14.8807H33.4565C34.0589 14.8816 34.1971 15.2282 33.6674 16.6659ZM35.5337 14.1358C35.2161 13.6856 34.674 13.4566 33.9185 13.4558C33.425 13.4558 32.9456 13.5684 32.4964 13.779C31.8535 14.0808 31.2711 14.5847 30.795 15.2532C30.4858 15.6873 30.2217 16.1898 30.0143 16.7524C29.6236 17.8143 29.6283 18.6759 30.028 19.2437C30.2541 19.5644 30.7245 19.9479 31.682 19.9487H31.6846C33.4283 19.9487 34.73 18.8146 35.5531 16.5778C35.7714 15.9855 36.0584 14.8813 35.5337 14.1358Z" fill="white"/>
<path d="M41.2479 13.5496C41.372 13.6471 41.4791 13.7583 41.5684 13.8857C41.7963 14.2121 41.8838 14.6003 41.832 15.0451H43.0004L41.2388 19.8495H42.9987L44.7608 15.0451H47.0215L47.5699 13.5496H41.2479V13.5496Z" fill="white"/>
<path d="M14.6403 20.8065C14.5988 20.9191 14.5469 20.9982 14.4851 21.0432C14.4232 21.0884 14.3298 21.111 14.2049 21.111C14.0801 21.111 14.0036 21.0893 13.9767 21.0456C13.9496 21.0023 13.9563 20.9262 13.9962 20.8164C14.0386 20.7018 14.0895 20.6225 14.1505 20.5782C14.2116 20.5341 14.3046 20.5117 14.4295 20.5117C14.5545 20.5117 14.6308 20.5333 14.6591 20.5758C14.6873 20.6185 14.6811 20.6952 14.6403 20.8065ZM13.5764 20.8065C13.535 20.9191 13.484 20.9982 13.4225 21.0432C13.3615 21.0884 13.2685 21.111 13.1436 21.111C13.0182 21.111 12.9423 21.0893 12.9144 21.0456C12.8863 21.0023 12.8925 20.9262 12.9327 20.8164C12.9747 20.7018 13.0266 20.6225 13.088 20.5782C13.1494 20.5341 13.2423 20.5117 13.3656 20.5117C13.4922 20.5117 13.5694 20.5333 13.5965 20.5758C13.6238 20.6185 13.6172 20.6952 13.5764 20.8065ZM14.1464 23.3489C14.0762 23.5406 13.9845 23.712 13.872 23.8633C13.76 24.0151 13.6297 24.1431 13.4807 24.2476C13.332 24.3525 13.1664 24.432 12.9842 24.487C12.8016 24.5417 12.6052 24.5689 12.3943 24.5689C12.1963 24.5689 12.0274 24.5446 11.8879 24.4952C11.7484 24.4463 11.6427 24.3716 11.5704 24.2717C11.4986 24.1716 11.4612 24.0477 11.4579 23.8983C11.455 23.7496 11.4903 23.5753 11.5633 23.3754L12.2607 21.4735C12.2669 21.4573 12.2769 21.443 12.2914 21.43C12.3056 21.4174 12.3271 21.4067 12.3553 21.3985C12.3832 21.3908 12.4185 21.3842 12.4608 21.3794C12.5031 21.3745 12.5558 21.3719 12.6193 21.3719C12.6812 21.3719 12.7314 21.3745 12.77 21.3794C12.8086 21.3841 12.8389 21.3908 12.8605 21.3985C12.8816 21.4067 12.8954 21.4174 12.9011 21.43C12.9069 21.443 12.9069 21.4573 12.9011 21.4735L12.2242 23.3196C12.1786 23.4439 12.1544 23.5517 12.152 23.6422C12.1495 23.7336 12.1661 23.8087 12.2018 23.8683C12.2378 23.9282 12.2901 23.9727 12.3594 24.0024C12.4288 24.0322 12.5131 24.0472 12.6122 24.0472C12.7127 24.0472 12.8086 24.0318 12.8991 24.0011C12.9901 23.9707 13.0751 23.9253 13.1506 23.8669C13.227 23.8081 13.2963 23.7359 13.3582 23.6494C13.4196 23.5633 13.4707 23.4655 13.5109 23.3557L14.2008 21.4735C14.2071 21.4573 14.217 21.443 14.2314 21.43C14.2461 21.4174 14.2667 21.4067 14.2941 21.3985C14.3216 21.3908 14.3569 21.3842 14.4 21.3794C14.4427 21.3745 14.4954 21.3719 14.5568 21.3719C14.6187 21.3719 14.6686 21.3745 14.7068 21.3794C14.7445 21.3841 14.7743 21.3908 14.7955 21.3985C14.8172 21.4067 14.8301 21.4174 14.835 21.43C14.8401 21.443 14.8401 21.4573 14.8338 21.4735L14.1464 23.3489ZM16.9058 22.2588C16.9286 22.1958 16.9394 22.1401 16.9381 22.0899C16.9372 22.0396 16.9232 21.9985 16.8962 21.9654C16.8692 21.9325 16.8297 21.9071 16.777 21.8891C16.724 21.8716 16.6484 21.8626 16.5492 21.8626H16.2254L15.9279 22.6743H16.2856C16.3782 22.6743 16.4558 22.6637 16.519 22.6417C16.5824 22.6201 16.6389 22.5904 16.6891 22.5524C16.7392 22.5149 16.7832 22.4702 16.8198 22.4198C16.8556 22.3701 16.8845 22.316 16.9058 22.2588ZM16.5779 23.5976C16.604 23.525 16.6161 23.4606 16.6122 23.403C16.6089 23.346 16.5908 23.2982 16.5584 23.2595C16.5252 23.2208 16.4761 23.1908 16.4105 23.1701C16.345 23.1488 16.2541 23.1387 16.1375 23.1387H15.7576L15.4318 24.0276H15.8942C15.9835 24.0276 16.0615 24.0187 16.1293 24.0002C16.196 23.9821 16.2597 23.9543 16.3181 23.9178C16.3757 23.8815 16.4271 23.8363 16.4724 23.7824C16.5172 23.7285 16.5522 23.6671 16.5779 23.5976ZM17.2503 23.576C17.2095 23.6869 17.1572 23.7877 17.0929 23.8783C17.029 23.968 16.9573 24.048 16.8775 24.1174C16.7978 24.1862 16.7105 24.2462 16.6173 24.2961C16.5232 24.3462 16.4246 24.3874 16.3226 24.4191C16.2191 24.4517 16.113 24.4756 16.0054 24.4906C15.8971 24.5061 15.7792 24.5135 15.6526 24.5135H14.8154C14.7618 24.5135 14.7224 24.498 14.6971 24.4661C14.6723 24.435 14.673 24.3841 14.6987 24.3127L15.6983 21.5869C15.7244 21.5162 15.7614 21.4653 15.8095 21.4334C15.8577 21.4021 15.9084 21.3865 15.9618 21.3865H16.753C16.9459 21.3865 17.1037 21.4024 17.2257 21.4347C17.3478 21.4669 17.4428 21.5154 17.5105 21.5811C17.5782 21.6459 17.618 21.7287 17.63 21.8287C17.6425 21.9287 17.6238 22.0461 17.5741 22.1815C17.5465 22.2566 17.5102 22.3284 17.466 22.3954C17.4226 22.4615 17.3718 22.5226 17.3146 22.5777C17.2565 22.6327 17.1925 22.6814 17.1237 22.723C17.0539 22.765 16.9792 22.7984 16.9003 22.8241C16.9834 22.8404 17.0552 22.8685 17.1163 22.9089C17.1768 22.9494 17.2233 23.0011 17.2561 23.0648C17.2889 23.1285 17.3059 23.203 17.3071 23.2883C17.308 23.3737 17.2893 23.4695 17.2503 23.576ZM19.6047 24.2648C19.5878 24.3113 19.5712 24.3505 19.5558 24.3818C19.54 24.4133 19.525 24.4385 19.5094 24.4576C19.4943 24.4773 19.479 24.4912 19.4636 24.5001C19.4483 24.5092 19.4333 24.5136 19.4185 24.5136H17.836C17.783 24.5136 17.7436 24.4977 17.7186 24.4662C17.6933 24.4348 17.6937 24.3839 17.7198 24.3129L18.7193 21.587C18.7451 21.516 18.7825 21.465 18.8301 21.4337C18.8783 21.4022 18.9294 21.3863 18.9829 21.3863H20.5553C20.5701 21.3863 20.5814 21.3908 20.5896 21.3985C20.5985 21.4066 20.6025 21.421 20.6039 21.4405C20.6047 21.4609 20.6009 21.487 20.5935 21.518C20.586 21.5498 20.5735 21.5894 20.5557 21.6376C20.5391 21.6829 20.5229 21.7213 20.5075 21.7527C20.4917 21.7839 20.4769 21.8093 20.4615 21.8289C20.446 21.8481 20.4312 21.862 20.4166 21.8709C20.4022 21.8798 20.3875 21.8844 20.3726 21.8844H19.2481L18.9684 22.648H19.9202C19.9348 22.648 19.9463 22.6526 19.9555 22.6611C19.9642 22.67 19.9695 22.684 19.9709 22.7022C19.972 22.7211 19.9687 22.7459 19.9613 22.7774C19.9537 22.8089 19.9422 22.8468 19.9256 22.892C19.9081 22.9389 19.8919 22.9772 19.8766 23.0079C19.8617 23.0385 19.8467 23.0633 19.8314 23.0817C19.8168 23.1001 19.8015 23.1135 19.7865 23.1218C19.7711 23.1298 19.7567 23.134 19.7417 23.134H18.7903L18.467 24.0158H19.601C19.6158 24.0158 19.6275 24.0203 19.6367 24.029C19.6455 24.0379 19.6504 24.0518 19.6512 24.0712C19.6525 24.0905 19.6491 24.1162 19.6416 24.1475C19.6338 24.1786 19.6217 24.2182 19.6047 24.2648ZM22.608 22.3094C22.6458 22.2067 22.6545 22.1193 22.6333 22.0487C22.6122 21.9778 22.5532 21.928 22.4566 21.8987C22.4275 21.8905 22.393 21.8844 22.3531 21.8794C22.3137 21.8746 22.2572 21.8721 22.1842 21.8721H21.8969L21.572 22.759H21.8983C21.9892 22.759 22.0721 22.7484 22.1485 22.7264C22.2249 22.7047 22.2926 22.674 22.3524 22.6346C22.4116 22.5963 22.4638 22.5484 22.5067 22.4929C22.5494 22.4384 22.5831 22.3772 22.608 22.3094ZM22.6553 24.4313C22.6487 24.4492 22.6399 24.4642 22.6292 24.4761C22.6183 24.4879 22.5993 24.4981 22.5719 24.5064C22.5445 24.5144 22.5071 24.5201 22.4585 24.5235C22.4103 24.5263 22.3457 24.5279 22.2642 24.5279C22.1963 24.5279 22.1423 24.5263 22.1029 24.5235C22.0638 24.5201 22.034 24.514 22.0136 24.505C21.9932 24.4965 21.9808 24.4847 21.9758 24.4712C21.9712 24.4578 21.9696 24.4411 21.97 24.4218L21.9439 23.7233C21.9384 23.6442 21.931 23.574 21.921 23.5129C21.9107 23.4517 21.8932 23.4007 21.8691 23.3596C21.8442 23.3183 21.8093 23.2878 21.7654 23.2668C21.7214 23.2457 21.6645 23.2351 21.5969 23.2351H21.3972L20.9602 24.4262C20.9543 24.4427 20.9436 24.4573 20.9285 24.4699C20.9132 24.4829 20.8921 24.4931 20.8646 24.5014C20.8376 24.5095 20.8028 24.516 20.76 24.5209C20.7177 24.5255 20.665 24.5279 20.6018 24.5279C20.54 24.5279 20.4894 24.5255 20.45 24.5209C20.4101 24.516 20.3798 24.5095 20.3586 24.5014C20.3367 24.4931 20.3238 24.4829 20.3188 24.4699C20.3139 24.4573 20.3143 24.4427 20.3201 24.4262L21.3611 21.5869C21.3872 21.516 21.4242 21.465 21.4724 21.4335C21.52 21.4022 21.5712 21.3863 21.6246 21.3863H22.4403C22.5229 21.3863 22.5905 21.3883 22.6429 21.3915C22.6902 21.3941 22.7374 21.398 22.7844 21.4035C22.9048 21.4209 23.0073 21.452 23.0928 21.4952C23.1783 21.5388 23.2434 21.5956 23.2883 21.6658C23.3332 21.7359 23.3568 21.8187 23.3593 21.9142C23.3613 22.0104 23.3394 22.1202 23.2942 22.2441C23.2556 22.3494 23.2073 22.4444 23.1488 22.5309C23.0914 22.6158 23.0234 22.6933 22.9463 22.7615C22.8695 22.8292 22.784 22.888 22.6893 22.9381C22.5947 22.9879 22.493 23.0283 22.3842 23.0588C22.4226 23.0807 22.4572 23.1084 22.4868 23.1409C22.5167 23.1731 22.5412 23.2122 22.5607 23.2583C22.5806 23.304 22.596 23.3566 22.6067 23.4149C22.6175 23.4742 22.6249 23.5407 22.6288 23.6149L22.6682 24.2309C22.6698 24.2917 22.6698 24.3365 22.6674 24.3646C22.6653 24.3929 22.6612 24.4153 22.6553 24.4313ZM26.6362 24.3515C26.6126 24.3904 26.5876 24.4213 26.5615 24.4446C26.5362 24.4678 26.5042 24.4857 26.4655 24.4976C26.4269 24.5099 26.3801 24.518 26.3253 24.5221C26.2705 24.5263 26.2012 24.5282 26.1187 24.5282C26.026 24.5282 25.9525 24.5263 25.8982 24.5221C25.8438 24.518 25.8023 24.51 25.7744 24.4976C25.7463 24.4857 25.7292 24.4678 25.7231 24.4446C25.7173 24.4213 25.7173 24.3904 25.7231 24.3515L25.9459 22.3702H25.941L24.7372 24.3515C24.7156 24.3887 24.6931 24.4192 24.67 24.442C24.6467 24.4658 24.6169 24.4837 24.5808 24.4963C24.5441 24.5094 24.4981 24.518 24.4421 24.522C24.3865 24.5263 24.3138 24.5282 24.2246 24.5282C24.1308 24.5282 24.0561 24.5263 24.0017 24.522C23.947 24.518 23.9058 24.5099 23.878 24.4976C23.8498 24.4857 23.8327 24.4678 23.827 24.4446C23.8208 24.4212 23.8198 24.3903 23.8245 24.3515L24.1091 21.6236C24.1159 21.5654 24.1241 21.5195 24.1348 21.4869C24.1454 21.4539 24.1636 21.4283 24.191 21.4106C24.2175 21.3932 24.2548 21.3821 24.3026 21.378C24.35 21.3741 24.4156 21.3719 24.4981 21.3719C24.5745 21.3719 24.6343 21.373 24.6783 21.3756C24.7219 21.378 24.7534 21.3837 24.7733 21.3922C24.7924 21.4017 24.8032 21.4143 24.8053 21.4315C24.8074 21.4482 24.8049 21.4718 24.7986 21.5024L24.4728 23.8972H24.4757L25.9219 21.5191C25.9393 21.4891 25.9572 21.4637 25.975 21.4446C25.9925 21.4254 26.0158 21.4102 26.0448 21.4C26.0739 21.3895 26.1107 21.3821 26.1564 21.378C26.2017 21.3741 26.2606 21.3719 26.3337 21.3719C26.4117 21.3719 26.4732 21.3735 26.5184 21.3769C26.5636 21.3802 26.5965 21.3871 26.618 21.3972C26.6392 21.4078 26.6517 21.4229 26.6562 21.4421C26.6604 21.4613 26.6599 21.4873 26.6545 21.5191L26.3769 23.8972H26.3819L27.8097 21.5093C27.8239 21.4841 27.8384 21.4621 27.8537 21.4432C27.8682 21.425 27.889 21.4102 27.9156 21.4C27.9421 21.3894 27.9774 21.3821 28.0211 21.378C28.0646 21.374 28.1243 21.3719 28.2011 21.3719C28.2722 21.3719 28.327 21.374 28.3656 21.378C28.4036 21.3821 28.4286 21.3931 28.4403 21.4106C28.451 21.4283 28.4493 21.4547 28.4344 21.4894C28.419 21.5237 28.3933 21.571 28.3568 21.6305L26.6362 24.3515ZM29.938 24.2648C29.9237 24.3046 29.9074 24.3436 29.8891 24.3818C29.8733 24.4133 29.8583 24.4385 29.8425 24.4576C29.8276 24.4773 29.8123 24.4912 29.7968 24.5001C29.7816 24.5092 29.7666 24.5136 29.7516 24.5136H28.1694C28.1162 24.5136 28.0769 24.4977 28.0515 24.4662C28.0266 24.4348 28.027 24.3839 28.0531 24.3129L29.0526 21.587C29.0783 21.516 29.1158 21.465 29.1634 21.4337C29.2116 21.4022 29.2627 21.3863 29.3162 21.3863H30.8886C30.9035 21.3863 30.9148 21.3908 30.923 21.3985C30.9317 21.4066 30.9362 21.421 30.9372 21.4405C30.9376 21.4609 30.9343 21.487 30.9267 21.518C30.9193 21.5498 30.9068 21.5894 30.889 21.6376C30.8751 21.6769 30.8589 21.7153 30.8404 21.7527C30.8254 21.7839 30.8102 21.8093 30.7948 21.8289C30.7794 21.8481 30.7644 21.862 30.7499 21.8709C30.7355 21.8798 30.7204 21.8844 30.7059 21.8844H29.5814L29.3013 22.648H30.2531C30.2681 22.648 30.2793 22.6526 30.2888 22.6611C30.2975 22.67 30.3024 22.684 30.3038 22.7022C30.3054 22.7211 30.302 22.7459 30.2946 22.7774C30.2871 22.8089 30.2755 22.8468 30.2589 22.892C30.2414 22.9389 30.2252 22.9772 30.21 23.0079C30.1946 23.0385 30.1796 23.0633 30.1647 23.0817C30.1497 23.1001 30.1353 23.1135 30.1198 23.1218C30.1045 23.1298 30.0896 23.134 30.075 23.134H29.1233L28.7998 24.0158H29.9339C29.9488 24.0158 29.9604 24.0203 29.9696 24.029C29.9783 24.0379 29.9833 24.0518 29.9845 24.0712C29.9858 24.0905 29.9825 24.1162 29.9749 24.1475C29.9675 24.1786 29.955 24.2182 29.938 24.2648ZM31.296 24.4265C31.2901 24.4428 31.2798 24.4572 31.2644 24.4702C31.249 24.4828 31.2279 24.4934 31.2004 24.5011C31.1731 24.5093 31.1386 24.5158 31.0959 24.5208C31.0535 24.5256 31.0008 24.5282 30.9378 24.5282C30.876 24.5282 30.8253 24.5256 30.7858 24.5208C30.7461 24.5158 30.7157 24.5093 30.6942 24.5011C30.6725 24.4933 30.6588 24.4828 30.6534 24.4702C30.6472 24.4572 30.6475 24.4428 30.6534 24.4265L31.736 21.4733C31.7421 21.4575 31.7526 21.4428 31.7679 21.4301C31.7832 21.4171 31.8053 21.4069 31.833 21.3988C31.8613 21.3905 31.8962 21.384 31.9389 21.3791C31.9813 21.3746 32.0332 21.3719 32.095 21.3719C32.158 21.3719 32.2091 21.3746 32.2481 21.3791C32.2868 21.384 32.317 21.3905 32.3382 21.3988C32.3599 21.4069 32.3736 21.4171 32.3794 21.4301C32.3851 21.4428 32.3851 21.4575 32.3789 21.4733L31.296 24.4265ZM34.4136 23.576C34.353 23.7404 34.2691 23.8844 34.1625 24.0085C34.055 24.133 33.9338 24.2361 33.7976 24.3189C33.6618 24.4021 33.5153 24.4646 33.3589 24.5065C33.2038 24.548 33.0439 24.569 32.8832 24.5689C32.7745 24.5689 32.6765 24.5599 32.5898 24.5424C32.5029 24.5249 32.4282 24.5037 32.366 24.4788C32.3041 24.4535 32.254 24.4274 32.2162 24.4C32.1784 24.3728 32.1522 24.3486 32.1394 24.3274C32.1261 24.3067 32.1216 24.2765 32.1274 24.2369C32.1327 24.1973 32.1489 24.1406 32.1764 24.0663C32.1946 24.0165 32.2115 23.9745 32.2273 23.941C32.2431 23.9069 32.2585 23.8795 32.2735 23.8587C32.2884 23.8374 32.3034 23.8227 32.3192 23.8143C32.3344 23.8053 32.3502 23.8006 32.3664 23.8006C32.3892 23.8006 32.4163 23.8143 32.4481 23.8404C32.4797 23.8672 32.522 23.8967 32.5752 23.9289C32.6284 23.9608 32.6952 23.9904 32.7753 24.0169C32.8554 24.0435 32.9551 24.057 33.0733 24.057C33.1513 24.057 33.2243 24.0476 33.2929 24.0288C33.3618 24.0104 33.4232 23.9843 33.4788 23.9504C33.5338 23.9168 33.5826 23.8744 33.6232 23.8248C33.6644 23.7749 33.6967 23.7185 33.7188 23.658C33.745 23.5869 33.7474 23.5267 33.727 23.4757C33.7068 23.4246 33.6727 23.3797 33.6246 23.3406C33.5765 23.3006 33.5191 23.2639 33.4527 23.2291C33.3836 23.1934 33.3149 23.1567 33.2467 23.1191C33.1771 23.0809 33.1111 23.0368 33.0493 22.9873C32.9882 22.939 32.9376 22.879 32.9007 22.811C32.8633 22.7426 32.8425 22.6618 32.8375 22.568C32.833 22.4749 32.8546 22.3628 32.9028 22.2322C32.9575 22.0825 33.0335 21.9508 33.1315 21.8369C33.229 21.7234 33.339 21.6293 33.4615 21.5545C33.5838 21.4795 33.7163 21.4236 33.8591 21.3865C33.9995 21.3497 34.1442 21.331 34.2896 21.331C34.3643 21.331 34.4365 21.3367 34.5074 21.3478C34.5781 21.3591 34.6419 21.3743 34.7 21.3939C34.7574 21.413 34.8071 21.4347 34.8487 21.4592C34.8902 21.4832 34.9163 21.5032 34.9263 21.5191C34.9367 21.5354 34.9425 21.5493 34.944 21.5606C34.9458 21.5717 34.945 21.5869 34.9425 21.6051C34.9399 21.6239 34.9341 21.6471 34.925 21.6753C34.914 21.7107 34.9021 21.7458 34.8893 21.7806C34.8718 21.8271 34.856 21.8667 34.842 21.8984C34.8274 21.931 34.8141 21.9576 34.8008 21.9784C34.7872 21.9993 34.7736 22.0148 34.7593 22.0246C34.7453 22.034 34.7287 22.0389 34.7117 22.0388C34.6938 22.0388 34.6693 22.0278 34.6386 22.0054C34.6083 21.9826 34.5693 21.958 34.5219 21.9315C34.4751 21.9045 34.4181 21.8806 34.3514 21.8589C34.2849 21.8369 34.2069 21.8263 34.1177 21.8263C34.0479 21.8263 33.9836 21.8349 33.926 21.8517C33.8674 21.8688 33.8155 21.8919 33.7699 21.9217C33.7242 21.9515 33.6847 21.9874 33.6528 22.0294C33.6208 22.0695 33.5956 22.1145 33.5781 22.1625C33.5528 22.2315 33.5499 22.2917 33.5694 22.3423C33.5889 22.3928 33.6232 22.4382 33.6732 22.4778C33.7225 22.5169 33.7814 22.5541 33.8503 22.5888C33.9201 22.6242 33.9893 22.6608 34.0579 22.6985C34.1281 22.7373 34.1951 22.7813 34.2584 22.8302C34.3214 22.8797 34.3721 22.9384 34.4103 23.0069C34.4485 23.0754 34.4697 23.1558 34.4751 23.2484C34.48 23.341 34.4593 23.4504 34.4136 23.576ZM37.7646 23.3489C37.6939 23.5406 37.6026 23.712 37.4907 23.8633C37.3781 24.0151 37.2478 24.1431 37.0988 24.2476C36.9501 24.3525 36.785 24.432 36.6024 24.487C36.4198 24.5417 36.2234 24.5689 36.0121 24.5689C35.8145 24.5689 35.6456 24.5446 35.5061 24.4952C35.3667 24.4463 35.2608 24.3716 35.1885 24.2717C35.1167 24.1716 35.0791 24.0477 35.0766 23.8983C35.0732 23.7496 35.1085 23.5753 35.1815 23.3754L35.8789 21.4735C35.8847 21.4573 35.8947 21.443 35.9095 21.43C35.9241 21.4174 35.9452 21.4067 35.9731 21.3985C36.0013 21.3908 36.0367 21.3842 36.079 21.3794C36.1217 21.3745 36.1744 21.3719 36.2376 21.3719C36.2994 21.3719 36.3496 21.3745 36.3882 21.3794C36.4268 21.3841 36.4571 21.3908 36.4787 21.3985C36.4998 21.4067 36.5134 21.4174 36.5189 21.43C36.5252 21.443 36.5252 21.4573 36.5189 21.4735L35.8424 23.3196C35.7967 23.4439 35.7726 23.5517 35.7701 23.6422C35.7677 23.7336 35.7843 23.8087 35.82 23.8683C35.8557 23.9282 35.9084 23.9727 35.9776 24.0024C36.047 24.0322 36.1313 24.0472 36.2304 24.0472C36.3304 24.0472 36.4264 24.0318 36.5173 24.0011C36.6082 23.9706 36.6933 23.9252 36.7688 23.8669C36.8456 23.8081 36.9149 23.7359 36.9763 23.6494C37.0378 23.5633 37.0889 23.4655 37.1291 23.3557L37.8194 21.4735C37.8252 21.4573 37.8352 21.443 37.8496 21.43C37.8642 21.4174 37.885 21.4067 37.9123 21.3985C37.9397 21.3908 37.975 21.3842 38.0182 21.3794C38.0613 21.3745 38.1136 21.3719 38.175 21.3719C38.2369 21.3719 38.2868 21.3745 38.325 21.3794C38.3626 21.3841 38.3925 21.3908 38.4137 21.3985C38.4354 21.4067 38.4482 21.4174 38.4532 21.43C38.4586 21.443 38.4582 21.4573 38.4524 21.4735L37.7646 23.3489ZM40.9223 24.2911C40.9087 24.3283 40.8904 24.3613 40.8663 24.3902C40.8441 24.4181 40.8176 24.4425 40.7878 24.4625C40.7594 24.4818 40.7278 24.4961 40.6945 24.5049C40.6608 24.5139 40.6293 24.5184 40.5981 24.5184H40.3255C40.2687 24.5184 40.2217 24.5126 40.1843 24.5013C40.1479 24.4908 40.1157 24.4692 40.0925 24.4396C40.0686 24.4102 40.0498 24.37 40.0358 24.3189C40.0221 24.2683 40.0096 24.2026 39.9987 24.1222L39.7506 22.6598C39.7363 22.5664 39.7246 22.4727 39.7153 22.3787C39.7051 22.2811 39.6989 22.183 39.6966 22.0849H39.6917C39.6556 22.2009 39.6181 22.3166 39.5792 22.4317C39.5384 22.551 39.4963 22.6699 39.4529 22.7884L38.8531 24.4242C38.8474 24.4402 38.8374 24.4547 38.824 24.4678C38.8104 24.4804 38.7908 24.4911 38.7655 24.5C38.7406 24.5089 38.7083 24.5159 38.6697 24.5208C38.6302 24.5257 38.5813 24.5282 38.5228 24.5282C38.4662 24.5282 38.4202 24.5257 38.3845 24.5208C38.3492 24.5159 38.3223 24.5089 38.3043 24.5C38.2866 24.4911 38.2762 24.4804 38.2725 24.4678C38.2692 24.4547 38.2704 24.4402 38.2762 24.4242L39.3068 21.6138C39.3347 21.538 39.3774 21.4812 39.436 21.4432C39.4945 21.4058 39.5567 21.3867 39.6215 21.3867H39.9648C40.0262 21.3867 40.0764 21.3915 40.1146 21.4021C40.1528 21.4126 40.1844 21.4302 40.2088 21.4543C40.233 21.4784 40.252 21.5119 40.2657 21.5546C40.279 21.5971 40.2898 21.6497 40.2978 21.713L40.4919 22.8556C40.5024 22.925 40.5127 22.993 40.5231 23.06C40.5334 23.1269 40.543 23.1938 40.5508 23.2608C40.5588 23.3272 40.5662 23.3928 40.5732 23.4578C40.5809 23.5219 40.5871 23.5862 40.5928 23.6506H40.5949C40.6314 23.5382 40.6708 23.4206 40.7131 23.2978C40.7539 23.1809 40.7956 23.0642 40.8381 22.9478L41.3761 21.4808C41.382 21.4645 41.3923 21.4502 41.4068 21.4371C41.421 21.4245 41.4412 21.4132 41.4678 21.4034C41.4943 21.3939 41.5267 21.3871 41.5653 21.3829C41.6043 21.3788 41.6529 21.3768 41.7114 21.3768C41.7662 21.3768 41.8119 21.3788 41.8476 21.3829C41.8837 21.3871 41.9099 21.3939 41.9265 21.4034C41.9434 21.4132 41.9534 21.4245 41.9567 21.4371C41.9605 21.4502 41.9588 21.4645 41.953 21.4808L40.9223 24.2911ZM45.2532 21.8722C45.2362 21.9192 45.2193 21.9591 45.2025 21.9929C45.1862 22.0267 45.1705 22.0542 45.1564 22.0741C45.1413 22.0942 45.1273 22.1083 45.1136 22.1166C45.1 22.1243 45.0861 22.1283 45.0717 22.1283C45.0505 22.1283 45.022 22.1137 44.9851 22.0848C44.9489 22.0562 44.8977 22.0248 44.8327 21.9905C44.7671 21.9571 44.6853 21.9253 44.5885 21.8963C44.491 21.8672 44.371 21.8531 44.2279 21.8531C44.0768 21.8528 43.9269 21.8793 43.7855 21.9314C43.643 21.9837 43.5106 22.0578 43.3874 22.1537C43.2644 22.2495 43.1549 22.365 43.059 22.4992C42.9627 22.6338 42.8843 22.7823 42.8245 22.945C42.759 23.1241 42.7253 23.2816 42.7233 23.4179C42.7212 23.5537 42.7465 23.6679 42.7988 23.7594C42.8511 23.8515 42.9291 23.9205 43.0329 23.9675C43.1367 24.0142 43.2615 24.0377 43.4076 24.0377C43.4786 24.0377 43.553 24.0294 43.6286 24.0135C43.7047 23.9971 43.7789 23.9728 43.8498 23.9409L44.1153 23.2159H43.5189C43.4899 23.2159 43.4737 23.1981 43.4708 23.1613C43.4675 23.1251 43.4823 23.0638 43.5143 22.9764C43.5309 22.9316 43.5467 22.8936 43.5621 22.8631C43.577 22.8322 43.5924 22.808 43.6069 22.7892C43.6223 22.7709 43.6368 22.757 43.6514 22.7484C43.6659 22.7395 43.6809 22.735 43.6953 22.735H44.7593C44.785 22.735 44.8065 22.7395 44.8236 22.7484C44.8406 22.757 44.8534 22.77 44.8626 22.7881C44.8716 22.806 44.8754 22.8272 44.8741 22.852C44.8733 22.877 44.8671 22.9055 44.8555 22.9381L44.399 24.1823C44.3814 24.2309 44.3571 24.2734 44.3272 24.3092C44.2964 24.3455 44.2511 24.3741 44.1905 24.3953C44.1304 24.416 44.0568 24.4377 43.971 24.4605C43.8839 24.4831 43.796 24.5024 43.7074 24.5184C43.6192 24.5341 43.5303 24.5461 43.441 24.5545C43.353 24.5625 43.2658 24.5667 43.1794 24.5667C42.928 24.5667 42.7158 24.5307 42.5435 24.4593C42.3708 24.3871 42.2405 24.2835 42.1525 24.1476C42.0645 24.0115 42.0201 23.8454 42.0188 23.6495C42.0175 23.4538 42.0625 23.2317 42.1533 22.9838C42.2471 22.7275 42.3704 22.4979 42.5228 22.2939C42.6755 22.0899 42.8493 21.9169 43.0445 21.7741C43.2401 21.6315 43.4521 21.5225 43.682 21.4467C43.9121 21.3712 44.1507 21.3332 44.3993 21.3332C44.5355 21.3332 44.6563 21.3426 44.7612 21.3614C44.8663 21.3797 44.9559 21.4022 45.0299 21.4286C45.1038 21.4551 45.1626 21.4841 45.2066 21.5143C45.2502 21.5454 45.2792 21.5715 45.293 21.5943C45.3067 21.6167 45.3108 21.6486 45.3054 21.6897C45.3 21.7311 45.2826 21.7918 45.2532 21.8722Z" fill="white"/>
</svg>
