<svg width="59" height="35" viewBox="0 0 59 35" fill="none" xmlns="http://www.w3.org/2000/svg">
<rect width="59" height="35" rx="10" fill="white" fill-opacity="0.1"/>
<path d="M25.182 13.2549L23.489 22.7655H26.1967L27.8911 13.2549H25.182Z" fill="white"/>
<path d="M21.2189 13.2662L18.5669 19.7522L18.2842 18.7728C17.7611 17.5928 16.2764 15.8982 14.5332 14.8302L16.9582 22.7615L19.8233 22.7568L24.0875 13.2642L21.2189 13.2662Z" fill="white"/>
<path d="M17.2561 13.9463C17.0988 13.3669 16.6426 13.1943 16.0764 13.1736H11.8783L11.8435 13.3629C15.1105 14.1216 17.2722 15.9496 18.1692 18.1476L17.2561 13.9463Z" fill="white"/>
<path d="M33.3792 15.0782C34.2651 15.0649 34.9072 15.2502 35.4058 15.4422L35.6503 15.5522L36.0166 13.4909C35.4803 13.2982 34.6398 13.0916 33.5909 13.0916C30.9153 13.0916 29.0293 14.3816 29.0147 16.2302C28.9973 17.5962 30.3581 18.3589 31.386 18.8142C32.4411 19.2809 32.7949 19.5776 32.79 19.9942C32.7817 20.6309 31.9488 20.9229 31.1708 20.9229C30.0865 20.9229 29.5106 20.7796 28.6212 20.4249L28.2723 20.2729L27.8914 22.4016C28.5251 22.6676 29.6944 22.8962 30.9083 22.9082C33.7546 22.9082 35.6043 21.6336 35.6238 19.6582C35.6356 18.5776 34.9134 17.7529 33.3486 17.0762C32.4014 16.6349 31.822 16.3416 31.8276 15.8962C31.8276 15.5009 32.3193 15.0782 33.3792 15.0782Z" fill="white"/>
<path d="M42.9655 13.2654H40.8734C40.2237 13.2654 39.7403 13.4347 39.4548 14.0547L35.4343 22.7707H38.2778C38.2778 22.7707 38.7417 21.5987 38.8468 21.342C39.1581 21.342 41.9209 21.346 42.3143 21.346C42.3951 21.678 42.6445 22.7707 42.6445 22.7707H45.1565L42.9655 13.2654ZM39.6261 19.3954C39.849 18.8494 40.7049 16.7374 40.7049 16.7374C40.6903 16.7634 40.9257 16.1874 41.0656 15.8294L41.2481 16.6494C41.2481 16.6494 41.767 18.92 41.8756 19.3954H39.6261Z" fill="white"/>
</svg>
