<svg width="34" height="18" viewBox="0 0 34 18" fill="none" xmlns="http://www.w3.org/2000/svg">
<path d="M28.5406 16.8673L33.4775 10.5017C34.1742 9.60344 34.1742 8.39651 33.4775 7.49839L28.5406 1.13269C27.9904 0.423789 27.086 7.8976e-05 26.1211 0.000118975L2.94483 0C1.32119 0.000119922 0.000179478 1.18184 4.54216e-05 2.63436L0 15.3656C4.46537e-05 16.0919 0.330285 16.7504 0.863565 17.2275C1.3968 17.7045 2.13298 17.9999 2.94487 17.9999L26.121 18C27.0861 18.0001 27.9906 17.5766 28.5406 16.8673ZM26.121 16.3033H2.94487C2.3668 16.3033 1.89663 15.8827 1.89667 15.3656L1.89676 2.6344C1.89676 2.11732 2.36693 1.69672 2.94492 1.69668L26.1211 1.69668C26.4015 1.69672 26.6676 1.79721 26.8624 1.97149C26.9062 2.01068 26.9464 2.05359 26.9823 2.0999L31.9192 8.4656C32.1672 8.78523 32.1672 9.21485 31.9192 9.53456L26.9823 15.9001C26.7866 16.1526 26.4646 16.3033 26.121 16.3033Z" fill="black"/>
<path d="M29.0214 8.98268C29.0215 7.70207 27.8568 6.66027 26.4253 6.66031C24.9937 6.66027 23.8291 7.70207 23.8292 8.98272C23.8291 9.62298 24.1202 10.2036 24.5904 10.6241C25.0605 11.0447 25.7095 11.3051 26.4252 11.3051C27.1187 11.3051 27.7706 11.0635 28.261 10.6249C28.7514 10.1862 29.0214 9.60304 29.0214 8.98268ZM26.4253 9.60839C26.0397 9.60843 25.7258 9.32788 25.7258 8.98272C25.7258 8.63767 26.0396 8.35696 26.4253 8.35696C26.6182 8.35696 26.7931 8.42716 26.9197 8.54043C27.0464 8.65377 27.1247 8.81023 27.1248 8.98271C27.1248 9.14988 27.0521 9.30698 26.9199 9.42517C26.7878 9.54335 26.6122 9.60839 26.4253 9.60839Z" fill="black"/>
<path d="M6.02209 11.4165V9.56279H7.23488C7.35797 9.56279 7.45167 9.51964 7.5159 9.43342C7.58021 9.3472 7.61233 9.24911 7.61233 9.13884C7.61233 9.01922 7.57878 8.9161 7.51192 8.82992C7.44497 8.74366 7.35257 8.70054 7.23492 8.70054H6.02214L6.02214 7.48619L8.10246 7.48619C8.2202 7.48619 8.3126 7.43836 8.37951 7.34255C8.44641 7.24682 8.47991 7.12944 8.47991 6.99048C8.47996 6.86114 8.4478 6.74863 8.38353 6.6527C8.31921 6.55705 8.2256 6.50911 8.10251 6.50911L5.31543 6.50911C5.1654 6.50915 5.03691 6.53908 4.92985 6.59897C4.82266 6.6589 4.76924 6.74384 4.7692 6.85399L4.7692 11.4165C4.7692 11.5268 4.83074 11.6118 4.95383 11.6717C5.07693 11.7316 5.22414 11.7615 5.3956 11.7614C5.56697 11.7614 5.71414 11.7315 5.83727 11.6716C5.96045 11.6118 6.02209 11.5268 6.02209 11.4165Z" fill="black"/>
<path d="M12.9782 11.2228C12.9782 11.1702 12.9649 11.1271 12.938 11.0935L11.9582 9.50557C12.6059 9.28051 12.9301 8.79431 12.93 8.04705C12.93 7.02207 12.2713 6.50947 10.9541 6.50947L9.29139 6.50946C9.17897 6.50943 9.08669 6.54291 9.01434 6.61003C8.94199 6.67715 8.9059 6.75618 8.9059 6.84712L8.9059 11.4168C8.9059 11.5272 8.96735 11.6121 9.09058 11.6719C9.21372 11.7318 9.36093 11.7617 9.53225 11.7617C9.70358 11.7617 9.85075 11.7318 9.97402 11.672C10.0972 11.6121 10.1587 11.5272 10.1587 11.4168V9.68528H10.6889L11.7893 11.5965C11.8696 11.7355 12.0034 11.8049 12.1908 11.8049C12.3782 11.8049 12.5564 11.7426 12.7251 11.6179C12.8939 11.4935 12.9781 11.3617 12.9782 11.2228ZM10.9542 8.82304L10.1589 8.82304V7.48666L10.9542 7.48666C11.1898 7.48666 11.3691 7.5382 11.4923 7.6412C11.6154 7.7442 11.6771 7.91532 11.6771 8.15481C11.6771 8.39445 11.6154 8.56561 11.4923 8.66858C11.3691 8.77154 11.1898 8.823 10.9542 8.82304Z" fill="black"/>
<path d="M17.2828 11.6176C17.3471 11.5218 17.3792 11.4093 17.3792 11.2799C17.3792 11.141 17.3457 11.0237 17.2788 10.9278C17.2117 10.8321 17.1193 10.7842 17.0017 10.7842L14.8491 10.7842V9.56277H16.0539C16.177 9.56277 16.2708 9.51962 16.3351 9.4334C16.3994 9.34718 16.4315 9.24909 16.4315 9.13882C16.4315 9.0192 16.3979 8.91608 16.3311 8.8299C16.264 8.74364 16.1716 8.70053 16.054 8.70053H14.8491V7.48616L17.0017 7.48616C17.1195 7.48616 17.2119 7.43834 17.2789 7.34253C17.3458 7.2468 17.3793 7.12942 17.3793 6.99046C17.3794 6.86108 17.3472 6.74861 17.2829 6.65268C17.2186 6.55703 17.1249 6.50909 17.0018 6.50909L14.1424 6.50909C13.9926 6.50917 13.864 6.53906 13.757 6.59895C13.6498 6.65888 13.5963 6.74382 13.5963 6.85397V11.4165C13.5963 11.5268 13.6497 11.6118 13.7569 11.6715C13.8639 11.7315 13.9924 11.7613 14.1424 11.7613L17.0017 11.7613C17.1248 11.7613 17.2185 11.7135 17.2828 11.6176Z" fill="black"/>
<path d="M21.6125 11.618C21.6767 11.5222 21.7088 11.4097 21.7088 11.2803C21.7088 11.1414 21.6753 11.0241 21.6084 10.9283C21.5414 10.8325 21.4491 10.7846 21.3314 10.7846L19.1788 10.7846L19.1788 9.56318L20.3836 9.56318C20.5067 9.56318 20.6005 9.52003 20.6647 9.43381C20.729 9.34759 20.7611 9.24951 20.7611 9.13923C20.7611 9.01961 20.7276 8.91649 20.6607 8.83035C20.5936 8.74409 20.5013 8.70098 20.3836 8.70098L19.1788 8.70098V7.48662L21.3313 7.48662C21.4492 7.48662 21.5415 7.43879 21.6085 7.34298C21.6754 7.24725 21.7089 7.12987 21.7089 6.99091C21.709 6.86154 21.6768 6.74907 21.6125 6.65314C21.5482 6.55749 21.4545 6.50954 21.3314 6.50954L18.472 6.50954C18.3222 6.50958 18.1936 6.53951 18.0866 6.5994C17.9794 6.65933 17.9259 6.74427 17.9259 6.85442L17.9259 11.4169C17.9259 11.5273 17.9793 11.6122 18.0865 11.672C18.1935 11.7319 18.322 11.7617 18.472 11.7617L21.3313 11.7617C21.4544 11.7617 21.5481 11.7139 21.6125 11.618Z" fill="black"/>
</svg>
