<svg width="39" height="39" viewBox="0 0 39 39" fill="none" xmlns="http://www.w3.org/2000/svg">
<circle cx="19.5" cy="19.5" r="19.5" fill="#CFD0D0"/>
<path d="M23.4246 20.59C23.0876 20.2732 22.5434 20.2732 22.2064 20.59L20.2193 22.4691L16.5129 18.9642C16.176 18.6474 15.6318 18.6474 15.2948 18.9642L9.24705 24.6831C8.91303 25.0053 8.91837 25.5226 9.25909 25.8385C9.41758 25.9854 9.62984 26.0691 9.85182 26.072H27.131C27.6081 26.0746 27.9972 25.711 28 25.2598C28.0013 25.0403 27.9092 24.8295 27.7444 24.675L23.4246 20.59Z" fill="#161735" fill-opacity="0.15"/>
<path d="M21.0831 17.902C22.5145 17.902 23.675 16.8046 23.675 15.451C23.675 14.0973 22.5145 13 21.0831 13C19.6516 13 18.4912 14.0973 18.4912 15.451C18.4912 16.8046 19.6516 17.902 21.0831 17.902Z" fill="#161735" fill-opacity="0.15"/>
</svg>
