<svg width="42" height="42" viewBox="0 0 42 42" fill="none" xmlns="http://www.w3.org/2000/svg">
<path d="M28.875 0H13.125C11.3138 0.00213281 9.84588 1.47 9.84375 3.28125V38.7188C9.84588 40.53 11.3138 41.9979 13.125 42H28.875C30.6863 41.9979 32.1541 40.53 32.1562 38.7188V3.28125C32.1541 1.47 30.6863 0.00213281 28.875 0ZM30.8438 38.7188C30.8438 39.8061 29.9623 40.6875 28.875 40.6875H13.125C12.0377 40.6875 11.1562 39.8061 11.1562 38.7188V34.7812H30.8438V38.7188ZM30.8438 33.4688H11.1562V7.21875H30.8438V33.4688ZM30.8438 5.90625H11.1562V3.28125C11.1562 2.19393 12.0377 1.3125 13.125 1.3125H28.875C29.9623 1.3125 30.8438 2.19393 30.8438 3.28125V5.90625Z" fill="#333333"/>
<path d="M21 35.4375C19.9127 35.4375 19.0312 36.3189 19.0312 37.4062C19.0312 38.4936 19.9127 39.375 21 39.375C22.0873 39.375 22.9688 38.4936 22.9688 37.4062C22.9688 36.3189 22.0873 35.4375 21 35.4375ZM21 38.0625C20.6376 38.0625 20.3438 37.7687 20.3438 37.4062C20.3438 37.0438 20.6376 36.75 21 36.75C21.3624 36.75 21.6562 37.0438 21.6562 37.4062C21.6562 37.7687 21.3624 38.0625 21 38.0625Z" fill="#333333"/>
<path d="M23.625 3.28125H18.375C18.0126 3.28125 17.7188 3.57509 17.7188 3.9375C17.7188 4.29991 18.0126 4.59375 18.375 4.59375H23.625C23.9874 4.59375 24.2812 4.29991 24.2812 3.9375C24.2812 3.57509 23.9874 3.28125 23.625 3.28125Z" fill="#333333"/>
<path d="M28.875 30.8438H28.2188C27.8563 30.8438 27.5625 31.1376 27.5625 31.5C27.5625 31.8624 27.8563 32.1562 28.2188 32.1562H28.875C29.2374 32.1562 29.5312 31.8624 29.5312 31.5C29.5312 31.1376 29.2374 30.8438 28.875 30.8438Z" fill="#333333"/>
<path d="M26.25 30.8438H25.5938C25.2313 30.8438 24.9375 31.1376 24.9375 31.5C24.9375 31.8624 25.2313 32.1562 25.5938 32.1562H26.25C26.6124 32.1562 26.9062 31.8624 26.9062 31.5C26.9062 31.1376 26.6124 30.8438 26.25 30.8438Z" fill="#333333"/>
<path d="M23.625 30.8438H22.9688C22.6063 30.8438 22.3125 31.1376 22.3125 31.5C22.3125 31.8624 22.6063 32.1562 22.9688 32.1562H23.625C23.9874 32.1562 24.2812 31.8624 24.2812 31.5C24.2812 31.1376 23.9874 30.8438 23.625 30.8438Z" fill="#333333"/>
</svg>
