<svg width="50" height="50" viewBox="0 0 50 50" fill="none" xmlns="http://www.w3.org/2000/svg">
<path d="M45.2701 41.8917H19.5944C19.4152 41.8917 19.2434 41.8205 19.1167 41.6938C18.9899 41.5671 18.9188 41.3952 18.9188 41.216V8.78359C18.9188 8.60439 18.9899 8.43252 19.1167 8.30581C19.2434 8.1791 19.4152 8.10791 19.5944 8.10791H45.2701C46.1658 8.10898 47.0245 8.46526 47.6578 9.0986C48.2911 9.73194 48.6474 10.5906 48.6485 11.4863V38.5133C48.6474 39.409 48.2911 40.2677 47.6578 40.901C47.0245 41.5344 46.1658 41.8906 45.2701 41.8917ZM20.2701 40.5404H45.2701C45.8077 40.5404 46.3233 40.3268 46.7034 39.9466C47.0836 39.5665 47.2971 39.0509 47.2971 38.5133V11.4863C47.2971 10.9487 47.0836 10.4331 46.7034 10.053C46.3233 9.67282 45.8077 9.45926 45.2701 9.45926H20.2701V40.5404Z" fill="#333333"/>
<path d="M7.43252 41.8917H4.72982C3.83415 41.8906 2.97547 41.5344 2.34213 40.901C1.70879 40.2677 1.35251 39.409 1.35144 38.5133V11.4863C1.35251 10.5906 1.70879 9.73194 2.34213 9.0986C2.97547 8.46526 3.83415 8.10898 4.72982 8.10791H7.43252C7.61172 8.10791 7.78358 8.1791 7.9103 8.30581C8.03701 8.43252 8.1082 8.60439 8.1082 8.78359C8.1082 8.96279 8.03701 9.13465 7.9103 9.26136C7.78358 9.38807 7.61172 9.45926 7.43252 9.45926H4.72982C4.19222 9.45926 3.67664 9.67282 3.29649 10.053C2.91635 10.4331 2.70279 10.9487 2.70279 11.4863V38.5133C2.70279 39.0509 2.91635 39.5665 3.29649 39.9466C3.67664 40.3268 4.19222 40.5404 4.72982 40.5404H7.43252C7.61172 40.5404 7.78358 40.6115 7.9103 40.7383C8.03701 40.865 8.1082 41.0368 8.1082 41.216C8.1082 41.3952 8.03701 41.5671 7.9103 41.6938C7.78358 41.8205 7.61172 41.8917 7.43252 41.8917Z" fill="#333333"/>
<path d="M18.2432 44.595H8.78374C8.24614 44.595 7.73056 44.3814 7.35042 44.0013C6.97027 43.6211 6.75671 43.1055 6.75671 42.5679V7.43279C6.75671 6.89519 6.97027 6.37961 7.35042 5.99946C7.73056 5.61932 8.24614 5.40576 8.78374 5.40576H18.2432C18.7808 5.40576 19.2964 5.61932 19.6765 5.99946C20.0567 6.37961 20.2702 6.89519 20.2702 7.43279V42.5679C20.2702 43.1055 20.0567 43.6211 19.6765 44.0013C19.2964 44.3814 18.7808 44.595 18.2432 44.595ZM8.78374 6.75711C8.60454 6.75711 8.43268 6.8283 8.30597 6.95501C8.17925 7.08173 8.10807 7.25359 8.10807 7.43279V42.5679C8.10807 42.7471 8.17925 42.919 8.30597 43.0457C8.43268 43.1724 8.60454 43.2436 8.78374 43.2436H18.2432C18.4224 43.2436 18.5943 43.1724 18.721 43.0457C18.8477 42.919 18.9189 42.7471 18.9189 42.5679V7.43279C18.9189 7.25359 18.8477 7.08173 18.721 6.95501C18.5943 6.8283 18.4224 6.75711 18.2432 6.75711H8.78374Z" fill="#333333"/>
<path d="M42.8973 18.8512H24.6703C24.28 18.8509 23.9059 18.6957 23.6299 18.4198C23.3538 18.1439 23.1985 17.7698 23.198 17.3796V13.2519C23.1985 12.8616 23.3538 12.4875 23.6299 12.2117C23.9059 11.9358 24.28 11.7806 24.6703 11.7803H42.8973C43.2876 11.7806 43.6618 11.9358 43.9378 12.2117C44.2138 12.4875 44.3691 12.8616 44.3696 13.2519V17.3782C44.3694 17.7687 44.2143 18.1432 43.9382 18.4194C43.6622 18.6955 43.2878 18.8509 42.8973 18.8512ZM24.6703 13.1316C24.6383 13.1316 24.6077 13.1443 24.585 13.1668C24.5623 13.1893 24.5495 13.2199 24.5493 13.2519V17.3782C24.5495 17.4102 24.5623 17.4408 24.585 17.4633C24.6077 17.4859 24.6383 17.4985 24.6703 17.4985H42.8973C42.9293 17.4985 42.9599 17.4859 42.9826 17.4633C43.0053 17.4408 43.0181 17.4102 43.0183 17.3782V13.2519C43.0181 13.2199 43.0053 13.1893 42.9826 13.1668C42.9599 13.1443 42.9293 13.1316 42.8973 13.1316H24.6703Z" fill="#333333"/>
<path d="M42.1175 26.2837H40.5405C40.0029 26.2837 39.4873 26.0702 39.1071 25.69C38.727 25.3099 38.5134 24.7943 38.5134 24.2567V23.3547C38.5134 22.8171 38.727 22.3015 39.1071 21.9213C39.4873 21.5412 40.0029 21.3276 40.5405 21.3276H42.1175C42.6551 21.3276 43.1707 21.5412 43.5508 21.9213C43.931 22.3015 44.1445 22.8171 44.1445 23.3547V24.2567C44.1445 24.7943 43.931 25.3099 43.5508 25.69C43.1707 26.0702 42.6551 26.2837 42.1175 26.2837ZM40.5405 22.679C40.3613 22.679 40.1894 22.7502 40.0627 22.8769C39.936 23.0036 39.8648 23.1755 39.8648 23.3547V24.2567C39.8648 24.4359 39.936 24.6078 40.0627 24.7345C40.1894 24.8612 40.3613 24.9324 40.5405 24.9324H42.1175C42.2967 24.9324 42.4685 24.8612 42.5953 24.7345C42.722 24.6078 42.7932 24.4359 42.7932 24.2567V23.3547C42.7932 23.1755 42.722 23.0036 42.5953 22.8769C42.4685 22.7502 42.2967 22.679 42.1175 22.679H40.5405Z" fill="#333333"/>
<path d="M34.5725 26.2837H32.9955C32.4579 26.2837 31.9423 26.0702 31.5621 25.69C31.182 25.3099 30.9684 24.7943 30.9684 24.2567V23.3547C30.9684 22.8171 31.182 22.3015 31.5621 21.9213C31.9423 21.5412 32.4579 21.3276 32.9955 21.3276H34.5725C35.1101 21.3276 35.6257 21.5412 36.0058 21.9213C36.386 22.3015 36.5995 22.8171 36.5995 23.3547V24.2567C36.5995 24.7943 36.386 25.3099 36.0058 25.69C35.6257 26.0702 35.1101 26.2837 34.5725 26.2837ZM32.9955 22.6803C32.8163 22.6803 32.6444 22.7515 32.5177 22.8782C32.391 23.005 32.3198 23.1768 32.3198 23.356V24.2567C32.3198 24.4359 32.391 24.6078 32.5177 24.7345C32.6444 24.8612 32.8163 24.9324 32.9955 24.9324H34.5725C34.7517 24.9324 34.9236 24.8612 35.0503 24.7345C35.177 24.6078 35.2482 24.4359 35.2482 24.2567V23.3547C35.2482 23.1755 35.177 23.0036 35.0503 22.8769C34.9236 22.7502 34.7517 22.679 34.5725 22.679L32.9955 22.6803Z" fill="#333333"/>
<path d="M27.0274 26.2837H25.4504C24.9128 26.2837 24.3972 26.0702 24.017 25.69C23.6369 25.3099 23.4233 24.7943 23.4233 24.2567V23.3547C23.4233 22.8171 23.6369 22.3015 24.017 21.9213C24.3972 21.5412 24.9128 21.3276 25.4504 21.3276H27.0274C27.565 21.3276 28.0806 21.5412 28.4607 21.9213C28.8409 22.3015 29.0544 22.8171 29.0544 23.3547V24.2567C29.0544 24.7943 28.8409 25.3099 28.4607 25.69C28.0806 26.0702 27.565 26.2837 27.0274 26.2837ZM25.4504 22.6803C25.2712 22.6803 25.0993 22.7515 24.9726 22.8782C24.8459 23.005 24.7747 23.1768 24.7747 23.356V24.2567C24.7747 24.4359 24.8459 24.6078 24.9726 24.7345C25.0993 24.8612 25.2712 24.9324 25.4504 24.9324H27.0274C27.2066 24.9324 27.3785 24.8612 27.5052 24.7345C27.6319 24.6078 27.7031 24.4359 27.7031 24.2567V23.3547C27.7031 23.1755 27.6319 23.0036 27.5052 22.8769C27.3785 22.7502 27.2066 22.679 27.0274 22.679L25.4504 22.6803Z" fill="#333333"/>
<path d="M42.1175 32.2514H40.5405C40.0029 32.2514 39.4873 32.0379 39.1071 31.6577C38.727 31.2776 38.5134 30.762 38.5134 30.2244V29.3244C38.5134 28.7868 38.727 28.2712 39.1071 27.8911C39.4873 27.5109 40.0029 27.2974 40.5405 27.2974H42.1175C42.6551 27.2974 43.1707 27.5109 43.5508 27.8911C43.931 28.2712 44.1445 28.7868 44.1445 29.3244V30.2257C44.1442 30.7631 43.9304 31.2783 43.5503 31.6582C43.1702 32.038 42.6549 32.2514 42.1175 32.2514ZM40.5405 28.6487C40.3613 28.6487 40.1894 28.7199 40.0627 28.8466C39.936 28.9733 39.8648 29.1452 39.8648 29.3244V30.2257C39.8648 30.4049 39.936 30.5768 40.0627 30.7035C40.1894 30.8302 40.3613 30.9014 40.5405 30.9014H42.1175C42.2967 30.9014 42.4685 30.8302 42.5953 30.7035C42.722 30.5768 42.7932 30.4049 42.7932 30.2257V29.3244C42.7932 29.1452 42.722 28.9733 42.5953 28.8466C42.4685 28.7199 42.2967 28.6487 42.1175 28.6487H40.5405Z" fill="#333333"/>
<path d="M34.5725 32.2514H32.9955C32.4579 32.2514 31.9423 32.0379 31.5621 31.6577C31.182 31.2776 30.9684 30.762 30.9684 30.2244V29.3244C30.9684 28.7868 31.182 28.2712 31.5621 27.8911C31.9423 27.5109 32.4579 27.2974 32.9955 27.2974H34.5725C35.1101 27.2974 35.6257 27.5109 36.0058 27.8911C36.386 28.2712 36.5995 28.7868 36.5995 29.3244V30.2257C36.5992 30.7631 36.3855 31.2783 36.0054 31.6582C35.6252 32.038 35.1099 32.2514 34.5725 32.2514ZM32.9955 28.6487C32.8163 28.6487 32.6444 28.7199 32.5177 28.8466C32.391 28.9733 32.3198 29.1452 32.3198 29.3244V30.2257C32.3198 30.4049 32.391 30.5768 32.5177 30.7035C32.6444 30.8302 32.8163 30.9014 32.9955 30.9014H34.5725C34.7517 30.9014 34.9236 30.8302 35.0503 30.7035C35.177 30.5768 35.2482 30.4049 35.2482 30.2257V29.3244C35.2482 29.1452 35.177 28.9733 35.0503 28.8466C34.9236 28.7199 34.7517 28.6487 34.5725 28.6487H32.9955Z" fill="#333333"/>
<path d="M27.0274 32.2514H25.4504C24.9128 32.2514 24.3972 32.0379 24.017 31.6577C23.6369 31.2776 23.4233 30.762 23.4233 30.2244V29.3244C23.4233 28.7868 23.6369 28.2712 24.017 27.8911C24.3972 27.5109 24.9128 27.2974 25.4504 27.2974H27.0274C27.565 27.2974 28.0806 27.5109 28.4607 27.8911C28.8409 28.2712 29.0544 28.7868 29.0544 29.3244V30.2257C29.0541 30.7631 28.8403 31.2783 28.4602 31.6582C28.0801 32.038 27.5648 32.2514 27.0274 32.2514ZM25.4504 28.6487C25.2712 28.6487 25.0993 28.7199 24.9726 28.8466C24.8459 28.9733 24.7747 29.1452 24.7747 29.3244V30.2257C24.7747 30.4049 24.8459 30.5768 24.9726 30.7035C25.0993 30.8302 25.2712 30.9014 25.4504 30.9014H27.0274C27.2066 30.9014 27.3785 30.8302 27.5052 30.7035C27.6319 30.5768 27.7031 30.4049 27.7031 30.2257V29.3244C27.7031 29.1452 27.6319 28.9733 27.5052 28.8466C27.3785 28.7199 27.2066 28.6487 27.0274 28.6487H25.4504Z" fill="#333333"/>
<path d="M42.1175 38.2194H40.5405C40.0029 38.2194 39.4873 38.0058 39.1071 37.6257C38.727 37.2455 38.5134 36.7299 38.5134 36.1923V35.2917C38.5134 34.7541 38.727 34.2385 39.1071 33.8584C39.4873 33.4782 40.0029 33.2646 40.5405 33.2646H42.1175C42.6551 33.2646 43.1707 33.4782 43.5508 33.8584C43.931 34.2385 44.1445 34.7541 44.1445 35.2917V36.1923C44.1445 36.7299 43.931 37.2455 43.5508 37.6257C43.1707 38.0058 42.6551 38.2194 42.1175 38.2194ZM40.5405 34.616C40.3613 34.616 40.1894 34.6872 40.0627 34.8139C39.936 34.9406 39.8648 35.1125 39.8648 35.2917V36.1923C39.8648 36.3715 39.936 36.5434 40.0627 36.6701C40.1894 36.7968 40.3613 36.868 40.5405 36.868H42.1175C42.2967 36.868 42.4685 36.7968 42.5953 36.6701C42.722 36.5434 42.7932 36.3715 42.7932 36.1923V35.2917C42.7932 35.1125 42.722 34.9406 42.5953 34.8139C42.4685 34.6872 42.2967 34.616 42.1175 34.616H40.5405Z" fill="#333333"/>
<path d="M34.5725 38.2194H32.9955C32.4579 38.2194 31.9423 38.0058 31.5621 37.6257C31.182 37.2455 30.9684 36.7299 30.9684 36.1923V35.2917C30.9684 34.7541 31.182 34.2385 31.5621 33.8584C31.9423 33.4782 32.4579 33.2646 32.9955 33.2646H34.5725C35.1101 33.2646 35.6257 33.4782 36.0058 33.8584C36.386 34.2385 36.5995 34.7541 36.5995 35.2917V36.1923C36.5995 36.7299 36.386 37.2455 36.0058 37.6257C35.6257 38.0058 35.1101 38.2194 34.5725 38.2194ZM32.9955 34.616C32.8163 34.616 32.6444 34.6872 32.5177 34.8139C32.391 34.9406 32.3198 35.1125 32.3198 35.2917V36.1923C32.3198 36.3715 32.391 36.5434 32.5177 36.6701C32.6444 36.7968 32.8163 36.868 32.9955 36.868H34.5725C34.7517 36.868 34.9236 36.7968 35.0503 36.6701C35.177 36.5434 35.2482 36.3715 35.2482 36.1923V35.2917C35.2482 35.1125 35.177 34.9406 35.0503 34.8139C34.9236 34.6872 34.7517 34.616 34.5725 34.616H32.9955Z" fill="#333333"/>
<path d="M27.0274 38.2194H25.4504C24.9128 38.2194 24.3972 38.0058 24.017 37.6257C23.6369 37.2455 23.4233 36.7299 23.4233 36.1923V35.2917C23.4233 34.7541 23.6369 34.2385 24.017 33.8584C24.3972 33.4782 24.9128 33.2646 25.4504 33.2646H27.0274C27.565 33.2646 28.0806 33.4782 28.4607 33.8584C28.8409 34.2385 29.0544 34.7541 29.0544 35.2917V36.1923C29.0544 36.7299 28.8409 37.2455 28.4607 37.6257C28.0806 38.0058 27.565 38.2194 27.0274 38.2194ZM25.4504 34.616C25.2712 34.616 25.0993 34.6872 24.9726 34.8139C24.8459 34.9406 24.7747 35.1125 24.7747 35.2917V36.1923C24.7747 36.3715 24.8459 36.5434 24.9726 36.6701C25.0993 36.7968 25.2712 36.868 25.4504 36.868H27.0274C27.2066 36.868 27.3785 36.7968 27.5052 36.6701C27.6319 36.5434 27.7031 36.3715 27.7031 36.1923V35.2917C27.7031 35.1125 27.6319 34.9406 27.5052 34.8139C27.3785 34.6872 27.2066 34.616 27.0274 34.616H25.4504Z" fill="#333333"/>
</svg>
